<svg xmlns="http://www.w3.org/2000/svg" viewBox="166.38 258.9 460.95 604.72"><defs><clipPath id="a" clipPathUnits="userSpaceOnUse"><path d="M-425.451 557.653h595.28v-841.89h-595.28Z"/></clipPath><clipPath id="b" clipPathUnits="userSpaceOnUse"><path d="M-222.01 417.782h595.28v-841.89h-595.28Z"/></clipPath><clipPath id="c" clipPathUnits="userSpaceOnUse"><path d="M-265.022 629.221h595.28v-841.89h-595.28Z"/></clipPath></defs><path d="M0 0h-70.033C-55.6 6.701-42.301 15.956-30.709 27.547c25.943 25.916 40.225 60.4 40.225 97.107v101.498c0 36.694-14.282 71.172-40.225 97.102-25.932 25.944-60.416 40.225-97.102 40.225s-71.172-14.281-97.102-40.225c-25.943-25.958-40.225-60.443-40.225-97.102V124.654c0-36.677 14.282-71.164 40.225-97.107C-213.328 15.956-200.033 6.701-185.6 0h-70.022c-24.871 0-45.045-20.16-45.045-45.031 0-24.879 20.174-45.033 45.045-45.033H0c24.871 0 45.045 20.154 45.045 45.033C45.045-20.16 24.871 0 0 0" clip-path="url(#a)" style="fill:#fff;fill-opacity:1;fill-rule:nonzero;stroke:none" transform="matrix(1.33333 0 0 -1.33333 567.268 743.537)"/><path d="M0 0c11.634 15.751 25.79 27.644 30.583 31.468.377 6.138 1.645 23.938 3.804 33.984-9.614 7.196-19.074 10.979-23.7 12.553C-1.881 69.2-12.526 57.886-20.649 44.83c-3.289-15.271-.167-31.754 1.24-37.683Zm3.315-89.097c-6.729 1.756-13.278 4.494-19.129 7.344 12.665-17.278 30.053-30.815 50.313-38.721l.836 2.41c-16.93 11.328-28.661 24.877-32.02 28.967M83.46 88.163l1.268 9.893c-3.01.236-6.033.459-9.098.459-19.939 0-38.637-5.183-54.911-14.212 5.364-2.341 12.149-5.852 19.089-11.007 6.409 4.354 22.488 13.696 43.652 14.867m48.446-32.151c.336-6.458.14-19.667-4.166-36.903 6.312-5.475 22.922-20.182 30.347-29.614 6.02 3.414 18.545 11.585 27.17 24.139-4.054 15.647-11.287 29.984-21.095 42.231-14.114 2.676-26.362 1.24-32.256.147m55.832-54.716c-9.824-11.223-21.36-18.217-26.488-20.963-.92-20.768-6.954-36.366-9.752-42.553 3.216-4.117 8.541-12.024 12.693-23.379 15.506 19.402 24.828 43.959 24.828 70.711 0 5.517-.516 10.882-1.281 16.184m-84.479-85.823c-1.422-5.308-4.89-16.754-10.896-27.762 4.293-2.543 12.178-6.57 21.861-9.105 16.289 5.908 30.836 15.353 42.68 27.531-3.68 12.319-9.1 20.762-12.403 25.11-8.205-3.694-29.3-12.903-41.242-15.774M56.597-122c-4.138 0-8.123.272-12.011.676l-.821-2.334c10.115-2.961 20.788-4.619 31.865-4.619 7.774 0 15.368.793 22.698 2.285-6.243 2.696-10.924 5.469-13.293 7.008-4.362-.969-15.174-3.016-28.438-3.016M6.758-6.947c.974-6.136 4.722-26.82 13.096-41.228 16.568.363 34.388 1.213 41.202 2.201L72.453.076c-5.434 4.71-20.774 17.264-36.422 23.541C30.932 19.458 17.319 7.726 6.758-6.947m93.743-68.447c10.395 2.32 32.172 11.711 41.856 16.129 2.144 4.584 8.75 20.301 9.447 41.291-4.906 7.224-22.072 22.739-30.556 30.089v.014C114.253 9.997 95.039 3.044 81.802-1.86l-11.62-46.956c9.126-10.728 25.234-22.863 30.319-26.578m53.713 142.141a112.94 112.94 0 0 1-60.025 30.117l-1.295-10.067c19.547-6.701 31.209-17.151 35.57-21.735 4.543.954 14.004 2.438 25.75 1.685M11.578-53.246c.028.063.028.098.056.161C2.688-37.724-1.31-16.839-2.536-9.232l-19.66 7.247c-6.423-6.731-12.276-15.669-15.188-20.483 1.018-15.25 5.017-29.643 11.468-42.649 5.769-3.728 16.929-10.34 28.591-13.947 1.714 6.582 5.099 18.363 8.903 25.818m-42.97 75.588c-3.051-8.792-5.086-18.037-5.894-27.658 2.676 3.567 5.601 7.148 8.598 10.249-.809 3.392-2.105 9.732-2.704 17.409M82.904-109.705c6.004 10.373 9.586 21.946 11.035 27.282-6.145 4.543-21.417 16.232-30.807 27.156-9.99-1.574-33.747-2.229-43.152-2.438-3.469-6.828-6.995-19.375-8.68-26.07 3.915-4.633 15.591-17.652 31.558-27.816 4.362-.578 8.974-.871 13.739-.871 12.164 0 22.293 1.894 26.307 2.757M40.184 32.249C57.168 25.282 73.08 12.198 78.806 7.203c.752.272 1.729.634 2.703.996 9.6 3.539 28.606 10.479 36.84 13 .057.014.125.042.168.056 4.682 18.65 4.068 32.346 3.719 36.526-3.106 3.365-14.727 14.721-35.125 20.998-21.889-.223-38.693-11.042-43.166-14.233-1.825-7.538-3.176-23.457-3.761-32.297" clip-path="url(#b)" style="fill:#ec1c24;fill-opacity:1;fill-rule:nonzero;stroke:none" transform="matrix(1.33333 0 0 -1.33333 296.014 557.043)"/><path d="M0 0h10.395v21.674h10.324v8.478H10.395V44.9h11.801v8.848H0Zm-19.005 20.984h14.198v8.924h-14.198ZM-34.499 0h10.464v53.748h-10.464zm-15.842 37.16.516-17.033h-.446l-9.001 33.621h-10.98V0h9.294v16.881l-.6 16.371h.447L-51.971 0h10.909v53.748h-9.279zm109.46 7.594h7.677V0h10.311v44.754h7.9v8.994H59.119Zm73.429-26.174 2.508 18.211 1.184 8.625h.515l1.186-8.625 2.508-18.211zm-3.164 35.168L120.091 0h9.879l1.477 10.617h10.101L143.025 0h9.879l-9.293 53.748zm-83.306-37.09c-.307-2.793-.836-4.926-1.631-6.375-.78-1.449-1.936-2.174-3.455-2.174-1.045 0-1.909.383-2.619 1.137-.711.766-1.268 1.908-1.659 3.434-.404 1.525-.681 3.47-.849 5.818-.182 2.367-.266 5.168-.266 8.414 0 4.07.141 7.504.404 10.283.28 2.78.823 4.877 1.631 6.305.809 1.414 1.922 2.139 3.358 2.139 1.072 0 1.965-.369 2.689-1.108.711-.738 1.268-1.867 1.686-3.392.418-1.534.711-3.463.892-5.825.166-2.353.25-5.162.25-8.402 0-4.033-.138-7.447-.431-10.254m7.078 30.932c-1.24 2.285-2.842 4.006-4.834 5.162-1.994 1.156-4.432 1.734-7.33 1.734q-4.284 0-7.231-1.734c-1.965-1.156-3.581-2.877-4.835-5.162q-1.881-3.428-2.717-8.59c-.571-3.441-.851-7.475-.851-12.088 0-4.625.28-8.666.851-12.129.557-3.476 1.463-6.34 2.717-8.623 1.254-2.293 2.87-4.006 4.835-5.129Q36.708-.661 40.992-.66c2.898 0 5.336.562 7.33 1.691 1.992 1.123 3.594 2.836 4.834 5.129 1.226 2.283 2.117 5.147 2.689 8.623.557 3.463.85 7.504.85 12.129 0 4.57-.293 8.59-.85 12.053-.572 3.463-1.463 6.34-2.689 8.625M3.581 351.775a8 8 0 0 0-1.338 4.459 8.033 8.033 0 0 0 8.04 8.039c4.431 0 8.039-3.594 8.039-8.039a7.93 7.93 0 0 0-1.365-4.459 13.39 13.39 0 0 1 6.716 11.606c0 7.406-5.991 13.411-13.39 13.411-7.413 0-13.404-6.005-13.404-13.411 0-4.96 2.703-9.3 6.702-11.606M-86.554 16.072c0-1.726-.167-3.134-.515-4.234-.334-1.115-.85-1.93-1.547-2.475-.683-.543-1.574-.806-2.647-.806q-1.483-.001-2.508.689c-.697.473-1.24 1.246-1.658 2.334q-.627 1.617-.627 4.492v37.676h-10.032V16.15q0-5.09 1.63-8.89c1.073-2.53 2.703-4.479 4.863-5.86 2.159-1.379 4.918-2.06 8.248-2.06q4.515 0 7.817 1.881c2.216 1.254 3.929 3.121 5.128 5.599 1.198 2.481 1.811 5.588 1.811 9.33v37.598h-9.963zM48.265 351.775a7.93 7.93 0 0 0-1.351 4.459c0 4.445 3.609 8.039 8.039 8.039a8.034 8.034 0 0 0 8.041-8.039 8.13 8.13 0 0 0-1.338-4.459 13.4 13.4 0 0 1 6.701 11.606c0 7.406-6.006 13.411-13.404 13.411-7.399 0-13.403-6.005-13.403-13.411 0-4.96 2.701-9.3 6.715-11.606m57.711-341.75c-.863-1.324-2.242-1.992-4.166-1.992h-2.424v15.774h2.717q2.361.001 3.762-1.911c.933-1.275 1.408-3.218 1.408-5.824 0-2.703-.432-4.722-1.297-6.047m-6.59 35.836h2.494q2.594 0 3.762-1.922c.795-1.275 1.186-3.148 1.186-5.601 0-1.477-.168-2.766-.475-3.873-.32-1.102-.836-1.965-1.52-2.578-.681-.614-1.601-.92-2.73-.92h-2.717ZM113.794 25.4c-1.199 1.205-2.814 2.049-4.836 2.543v.364c1.631.396 2.983 1.129 4.055 2.214 1.088 1.081 1.895 2.411 2.438 3.985.545 1.568.808 3.316.808 5.232q0 6.636-3.092 10.325c-2.062 2.453-5.476 3.685-10.242 3.685h-13.57V0h12.609c3.344 0 6.159.578 8.471 1.736 2.315 1.149 4.041 2.864 5.197 5.114 1.157 2.269 1.743 4.994 1.743 8.191 0 2.209-.307 4.188-.893 5.936-.584 1.742-1.49 3.218-2.688 4.423M-16.524 390.189h98.285l-6.926-8.819c4.293-4.759 6.926-11.064 6.926-17.989 0-14.797-11.996-26.793-26.808-26.793a26.7 26.7 0 0 0-12.776 3.225l-9.559-12.164-9.558 12.164a26.7 26.7 0 0 0-12.777-3.225c-14.811 0-26.807 11.996-26.807 26.793 0 6.925 2.619 13.23 6.924 17.989zm49.142-71.22c51.094 0 94.872-31.231 113.348-75.644 0 .293.041.571.041.857 0 43.785-24.857 81.712-61.195 100.606 1.658 2.64 2.898 5.531 3.805 8.575 25.511-13.111 45.867-34.833 57.097-61.397.098 1.916.293 3.804.293 5.755 0 62.616-50.773 113.389-113.389 113.389S-80.785 360.337-80.785 297.721c0-1.951.195-3.839.293-5.768 11.244 26.57 31.6 48.299 57.112 61.41.92-3.044 2.159-5.935 3.804-8.575-36.338-18.894-61.209-56.813-61.209-100.606 0-.286.042-.557.042-.843 18.489 44.406 62.267 75.63 113.361 75.63M167.798 9.217v44.531h-10.476V0h20.719v9.217ZM-90.135 297.721c0 67.792 54.953 122.752 122.753 122.752s122.753-54.96 122.753-122.752V196.223c0-67.805-54.954-122.774-122.753-122.774S-90.135 128.418-90.135 196.223zM32.618 68.162c34.206 0 66.35 13.315 90.54 37.51 24.201 24.18 37.508 56.338 37.508 90.551v101.498c0 34.199-13.307 66.357-37.508 90.538-24.176 24.196-56.334 37.516-90.54 37.516s-66.364-13.32-90.553-37.516c-24.173-24.181-37.508-56.339-37.508-90.538V196.223c0-34.213 13.335-66.371 37.508-90.551 24.189-24.195 56.347-37.51 90.553-37.51" clip-path="url(#c)" style="fill:#0054a5;fill-opacity:1;fill-rule:nonzero;stroke:none" transform="matrix(1.33333 0 0 -1.33333 353.363 838.961)"/></svg>