<svg version="1.2" xmlns="http://www.w3.org/2000/svg" viewBox="0 0 568 235" width="568" height="235">
	<style>
		.s0 { fill: #ffffff } 
		.s1 { fill: #ec1c24 } 
		.s2 { fill: #0054a5 } 
	</style>
	<g id="Vrstva 1">
		<g id="&lt;Group&gt;">
			<path id="&lt;Compound Path&gt;" class="s0" d="m233.75 0.47c-22.8 0-44.24 8.88-60.37 25-10.72 10.73-18.31 23.92-22.14 38.4h-95.54c-30.45 0-55.22 24.77-55.22 55.22 0 30.45 24.77 55.22 55.22 55.22h96.61c4.09 13.18 11.32 25.17 21.06 34.93 16.14 16.13 37.58 25.01 60.38 25.01 22.81 0 44.25-8.88 60.37-25 9.76-9.76 16.98-21.76 21.08-34.94h196.99c30.45 0 55.22-24.77 55.22-55.22 0-30.45-24.77-55.22-55.22-55.22h-195.93c-3.83-14.49-11.42-27.68-22.14-38.39-16.12-16.13-37.56-25.01-60.37-25.01z"/>
			<path id="&lt;Compound Path&gt;" class="s1" d="m211.74 119.4c10.55 4.33 20.43 12.44 23.99 15.55 0.46-0.17 1.07-0.4 1.67-0.62 5.96-2.2 17.76-6.5 22.87-8.07q0.07-0.02 0.08-0.03c2.94-11.59 2.56-20.09 2.34-22.68-1.93-2.09-9.14-9.14-21.81-13.04-13.59 0.14-24.02 6.86-26.8 8.83-1.14 4.68-1.97 14.57-2.34 20.06zm26.53 88.13c3.73-6.44 5.95-13.62 6.85-16.94-3.82-2.82-13.29-10.08-19.13-16.86-6.2 0.98-20.95 1.39-26.79 1.52-2.16 4.23-4.34 12.03-5.39 16.18 2.43 2.88 9.68 10.96 19.59 17.27 2.71 0.37 5.58 0.55 8.54 0.55 7.54 0 13.84-1.18 16.33-1.72zm-70.96-81.98c-1.9 5.46-3.17 11.2-3.67 17.17 1.67-2.21 3.48-4.44 5.34-6.36-0.5-2.11-1.31-6.04-1.67-10.81zm26.67 46.93q0.02-0.05 0.04-0.1c-5.56-9.54-8.04-22.51-8.8-27.23l-12.21-4.5c-3.99 4.18-7.62 9.73-9.43 12.72 0.63 9.47 3.12 18.41 7.12 26.48 3.59 2.31 10.52 6.42 17.75 8.66 1.07-4.09 3.17-11.4 5.53-16.03zm88.56-74.5c-10.03-9.66-22.91-16.33-37.26-18.7l-0.81 6.26c12.13 4.15 19.37 10.64 22.08 13.49 2.82-0.6 8.7-1.52 15.99-1.05zm-33.35 88.25c6.46-1.44 19.98-7.28 25.99-10.01 1.33-2.84 5.43-12.61 5.86-25.64-3.04-4.48-13.7-14.12-18.96-18.69h-0.01c-4.34 1.33-16.27 5.64-24.49 8.69l-7.21 29.15c5.67 6.66 15.66 14.19 18.82 16.5zm-58.2-42.5c0.6 3.82 2.93 16.66 8.13 25.6 10.29-0.23 21.35-0.75 25.58-1.37l7.08-28.59c-3.37-2.92-12.9-10.71-22.62-14.61-3.16 2.58-11.61 9.86-18.17 18.97zm30.95 71.43c-2.57 0-5.05-0.16-7.47-0.41l-0.5 1.44c6.28 1.85 12.9 2.87 19.78 2.87 4.83 0 9.54-0.49 14.09-1.42-3.87-1.67-6.78-3.39-8.25-4.35-2.71 0.6-9.42 1.87-17.65 1.87zm28.96-23.26c-0.88 3.29-3.03 10.4-6.76 17.24 2.67 1.58 7.56 4.08 13.58 5.65 10.1-3.67 19.14-9.53 26.49-17.1-2.28-7.64-5.65-12.88-7.7-15.58-5.1 2.29-18.19 8.01-25.61 9.79zm52.45-53.28c-6.09 6.96-13.26 11.31-16.44 13.01-0.58 12.9-4.32 22.58-6.06 26.42 2 2.56 5.3 7.46 7.88 14.52 9.63-12.05 15.42-27.3 15.42-43.91 0-3.42-0.32-6.75-0.8-10.04zm-34.66-33.97c0.21 4 0.09 12.21-2.58 22.91 3.91 3.4 14.22 12.53 18.83 18.38 3.74-2.12 11.52-7.19 16.88-14.98-2.52-9.72-7.01-18.62-13.11-26.23-8.76-1.66-16.36-0.76-20.02-0.08zm-30.08-19.97l0.79-6.14c-1.87-0.15-3.74-0.28-5.65-0.28-12.38 0-23.99 3.21-34.09 8.82 3.33 1.45 7.54 3.63 11.85 6.83 3.97-2.7 13.96-8.5 27.1-9.23zm-49.75 110.06c-4.19-1.09-8.25-2.79-11.88-4.56 7.86 10.73 18.65 19.13 31.24 24.04l0.51-1.5c-10.51-7.03-17.79-15.45-19.87-17.98zm-2.07-55.32c7.23-9.78 16.02-17.16 18.99-19.54 0.24-3.81 1.02-14.86 2.36-21.1-5.97-4.47-11.84-6.81-14.71-7.79-7.8 5.47-14.41 12.49-19.45 20.6-2.05 9.48-0.11 19.71 0.77 23.39z"/>
			<path id="&lt;Compound Path&gt;" fill-rule="evenodd" class="s2" d="m304.15 119.09q-0.01 0.27-0.02 0.53c-11.48-27.57-38.66-46.97-70.38-46.97-31.73 0-58.9 19.39-70.37 46.96q-0.02-0.26-0.03-0.52c0-27.18 15.44-50.73 37.99-62.46-1.02-1.64-1.79-3.43-2.35-5.33-15.84 8.14-28.49 21.63-35.46 38.12-0.06-1.19-0.18-2.36-0.18-3.57 0-38.88 31.52-70.4 70.4-70.4 38.88 0 70.4 31.52 70.4 70.4 0 1.21-0.12 2.38-0.18 3.57-6.98-16.49-19.61-29.98-35.45-38.12-0.57 1.9-1.34 3.69-2.36 5.33 22.55 11.73 37.99 35.28 37.99 62.46zm-44.19-85.17l4.3-5.47h-61.02l4.3 5.47c-2.67 2.95-4.3 6.87-4.3 11.17 0 9.18 7.45 16.63 16.64 16.63 2.88 0 5.58-0.72 7.93-2l5.94 7.55 5.93-7.55c2.36 1.28 5.06 2 7.94 2 9.19 0 16.64-7.45 16.64-16.63 0-4.3-1.63-8.22-4.3-11.17zm-31.76 11.17c0 3.07-1.68 5.77-4.17 7.2 0.53-0.79 0.84-1.75 0.84-2.77 0-2.76-2.23-4.99-4.99-4.99-2.76 0-4.99 2.23-4.99 4.99 0 1.02 0.31 1.98 0.84 2.77-2.49-1.43-4.17-4.12-4.17-7.2 0-4.6 3.73-8.33 8.32-8.33 4.6 0 8.32 3.73 8.32 8.33zm27.74 0c0 3.08-1.68 5.77-4.16 7.2 0.52-0.79 0.83-1.75 0.83-2.77 0-2.76-2.23-4.99-4.99-4.99-2.75 0-4.99 2.23-4.99 4.99 0 1.02 0.3 1.98 0.84 2.77-2.5-1.43-4.17-4.12-4.17-7.2 0-4.6 3.72-8.33 8.32-8.33 4.59 0 8.32 3.73 8.32 8.33z"/>
			<path id="&lt;Compound Path&gt;" fill-rule="evenodd" class="s2" d="m561.53 119.09c0 27.25-22.09 49.34-49.34 49.34h-201.45c-3.47 13.74-10.49 26.37-20.77 36.65-15.01 15.02-34.98 23.29-56.22 23.29-21.24 0-41.2-8.27-56.22-23.29-10.27-10.28-17.3-22.91-20.77-36.65h-101.06c-27.24 0-49.34-22.09-49.34-49.34 0-27.25 22.1-49.34 49.34-49.34h100.2c3.09-15.09 10.49-28.96 21.63-40.11 15.02-15.02 34.98-23.29 56.22-23.29 21.24 0 41.21 8.27 56.22 23.29 11.14 11.15 18.55 25.02 21.64 40.11h200.58c27.25 0 49.34 22.09 49.34 49.34zm-99.8 12.77q0-3.56-0.95-6.36-0.95-2.82-2.89-4.76-1.94-1.94-5.18-2.73v-0.39q2.61-0.64 4.35-2.38 1.74-1.74 2.61-4.28 0.87-2.53 0.87-5.62 0.01-7.12-3.32-11.08-3.32-3.96-11.01-3.96h-14.56v57.71h13.54q5.38 0 9.1-1.86 3.72-1.85 5.58-5.5 1.86-3.64 1.86-8.79zm-12.35-7.36q1.5 2.06 1.51 6.25 0 4.36-1.39 6.5-1.38 2.13-4.47 2.14h-2.62v-16.95h2.94q2.53 0 4.03 2.06zm-52.8-5.38q0-7.36-0.91-12.95-0.91-5.58-2.89-9.26-1.98-3.68-5.19-5.53-3.21-1.87-7.87-1.87-4.6 0-7.76 1.87-3.17 1.85-5.18 5.53-2.02 3.68-2.94 9.22-0.9 5.55-0.91 12.99 0.01 7.44 0.91 13.02 0.92 5.58 2.94 9.27 2.01 3.67 5.18 5.5 3.16 1.82 7.76 1.82 4.66 0 7.87-1.82 3.21-1.83 5.19-5.5 1.98-3.69 2.89-9.27 0.91-5.58 0.91-13.02zm-321.27-28.82h-10.69v40.45q0 2.78-0.55 4.56-0.55 1.78-1.67 2.65-1.1 0.87-2.84 0.87-1.59 0-2.7-0.75-1.11-0.75-1.77-2.49-0.68-1.75-0.68-4.84v-40.45h-10.77v40.38q0.01 5.46 1.75 9.54 1.73 4.07 5.22 6.29 3.48 2.22 8.87 2.22 4.82 0 8.39-2.02 3.56-2.02 5.5-6.02 1.94-3.99 1.94-10.01zm38.15 0h-9.97v17.81l0.55 18.29h-0.48l-9.65-36.1h-11.8v57.71h9.98v-18.13l-0.64-17.57h0.48l9.82 35.7h11.71zm18.29 0h-11.24v57.71h11.24zm178.21-4.45c0-42.09-34.12-76.21-76.21-76.21-42.08 0-76.21 34.12-76.21 76.21v63.01c0 42.1 34.13 76.22 76.21 76.22 42.09 0 76.21-34.12 76.21-76.22zm49.57 4.46h-23.83v57.71h11.17v-23.27h11.08v-9.11h-11.08v-15.83h12.66zm25.84 19.79q0.28 3.8 0.29 9.02 0 6.5-0.48 11.01-0.48 4.51-1.74 6.85-1.27 2.33-3.72 2.33-1.67 0-2.81-1.22-1.15-1.23-1.79-3.68-0.63-2.46-0.91-6.26-0.27-3.8-0.27-9.03 0-6.56 0.43-11.04 0.44-4.47 1.74-6.77 1.31-2.29 3.61-2.29 1.73 0 2.89 1.18 1.14 1.2 1.82 3.65 0.67 2.45 0.94 6.25zm41.61-19.79h-27.79v9.66h8.24v48.05h11.08v-48.05h8.47zm18.37 24.46h-2.94v-15.99h2.7q2.77 0 4.04 2.06 1.26 2.06 1.26 6.02 0 2.37-0.51 4.15-0.52 1.78-1.63 2.77-1.1 0.99-2.92 0.99zm54.54 33.25l-9.98-57.71h-15.28l-9.97 57.71h10.6l1.58-11.39h10.86l1.58 11.39zm26.99-9.89h-11v-47.82h-11.24v57.71h22.24zm-43.07-29.61l2.71 19.55h-8.5l2.71-19.55 1.26-9.26h0.56z"/>
		</g>
	</g>
</svg>