<svg xmlns="http://www.w3.org/2000/svg" viewBox="528.01 364.66 66.5 64.38"><defs><clipPath id="a" clipPathUnits="userSpaceOnUse"><path d="M-420.945 290.986h841.89v-595.28h-841.89Z"/></clipPath><clipPath id="b" clipPathUnits="userSpaceOnUse"><path d="M-413.071 296.707h841.89v-595.28h-841.89Z"/></clipPath><clipPath id="c" clipPathUnits="userSpaceOnUse"><path d="M-416.08 305.963h841.89v-595.28h-841.89Z"/></clipPath><clipPath id="d" clipPathUnits="userSpaceOnUse"><path d="M-428.818 296.707h841.89v-595.28h-841.89Z"/></clipPath><clipPath id="e" clipPathUnits="userSpaceOnUse"><path d="M-425.812 305.963h841.89v-595.28h-841.89Z"/></clipPath></defs><path d="M0 0a8.746 8.746 0 1 1-.001 17.489A8.746 8.746 0 0 1 0 0" clip-path="url(#a)" style="fill:#ef3d42;fill-opacity:1;fill-rule:nonzero;stroke:none" transform="matrix(1.33333 0 0 -1.33333 561.26 387.981)"/><path d="M0 0a8.745 8.745 0 1 1-16.634 5.405A8.745 8.745 0 0 1 0 0" clip-path="url(#b)" style="fill:#ef3d42;fill-opacity:1;fill-rule:nonzero;stroke:none" transform="matrix(1.33333 0 0 -1.33333 550.762 395.61)"/><path d="M0 0c-3.907 2.84-9.377 1.973-12.217-1.936-2.838-3.906-1.971-9.375 1.936-12.214 3.908-2.838 9.377-1.973 12.216 1.933A8.75 8.75 0 0 1 0 0" clip-path="url(#c)" style="fill:#ef3d42;fill-opacity:1;fill-rule:nonzero;stroke:none" transform="matrix(1.33333 0 0 -1.33333 554.772 407.95)"/><path d="M0 0a8.746 8.746 0 1 1 16.636 5.407A8.746 8.746 0 0 1 0 0" clip-path="url(#d)" style="fill:#ef3d42;fill-opacity:1;fill-rule:nonzero;stroke:none" transform="matrix(1.33333 0 0 -1.33333 571.758 395.61)"/><path d="M0 0a8.75 8.75 0 0 1-1.936-12.217c2.839-3.906 8.309-4.771 12.216-1.933s4.775 8.308 1.936 12.214C9.377 1.973 3.906 2.84 0 0" clip-path="url(#e)" style="fill:#ef3d42;fill-opacity:1;fill-rule:nonzero;stroke:none" transform="matrix(1.33333 0 0 -1.33333 567.749 407.95)"/></svg>