<svg xmlns="http://www.w3.org/2000/svg" viewBox="0 0 255.476 255.481"><defs><clipPath id="a" clipPathUnits="userSpaceOnUse"><path d="M-143.437 45.335H48.17v-191.61h-191.607Z"/></clipPath><clipPath id="b" clipPathUnits="userSpaceOnUse"><path d="M-113.638 69.384H77.97v-191.611h-191.607Z"/></clipPath><clipPath id="c" clipPathUnits="userSpaceOnUse"><path d="M-36.872 139.651h191.607V-51.96H-36.872Z"/></clipPath><clipPath id="d" clipPathUnits="userSpaceOnUse"><path d="M-56.03 143.367h191.608V-48.244H-56.03Z"/></clipPath><clipPath id="e" clipPathUnits="userSpaceOnUse"><path d="M-67.708 134.19H123.9V-57.423H-67.708Z"/></clipPath><clipPath id="f" clipPathUnits="userSpaceOnUse"><path d="M-80.648 139.239h191.607V-52.372H-80.648Z"/></clipPath><clipPath id="g" clipPathUnits="userSpaceOnUse"><path d="M-98.01 140.692H93.595v-191.61H-98.01Z"/></clipPath><clipPath id="h" clipPathUnits="userSpaceOnUse"><path d="M-102.212 131.119H89.395V-60.492h-191.607Z"/></clipPath><clipPath id="i" clipPathUnits="userSpaceOnUse"><path d="M-121.803 143.367H69.804V-48.244h-191.607Z"/></clipPath><clipPath id="j" clipPathUnits="userSpaceOnUse"><path d="M-131.751 131.119H59.856V-60.492h-191.607Z"/></clipPath><clipPath id="k" clipPathUnits="userSpaceOnUse"><path d="M-154.83 140.692H36.779v-191.61H-154.83Z"/></clipPath><clipPath id="l" clipPathUnits="userSpaceOnUse"><path d="M-38.816 165.974h191.607v-191.61H-38.816Z"/></clipPath><clipPath id="m" clipPathUnits="userSpaceOnUse"><path d="M-58.134 165.776h191.607V-25.835H-58.134Z"/></clipPath><clipPath id="n" clipPathUnits="userSpaceOnUse"><path d="M0 191.611h191.607V0H0Z"/></clipPath><clipPath id="o" clipPathUnits="userSpaceOnUse"><path d="M-80.144 165.776h191.607V-25.835H-80.144Z"/></clipPath><clipPath id="p" clipPathUnits="userSpaceOnUse"><path d="M-91.318 165.776h191.607V-25.835H-91.318Z"/></clipPath><clipPath id="q" clipPathUnits="userSpaceOnUse"><path d="M-109.1 161.506H82.505V-30.105H-109.1Z"/></clipPath><clipPath id="r" clipPathUnits="userSpaceOnUse"><path d="M-118.312 165.776H73.295V-25.835h-191.607Z"/></clipPath><clipPath id="s" clipPathUnits="userSpaceOnUse"><path d="M0 191.611h191.607V0H0Z"/></clipPath><clipPath id="t" clipPathUnits="userSpaceOnUse"><path d="M-143.06 155.381H48.547v-191.61H-143.06Z"/></clipPath><clipPath id="u" clipPathUnits="userSpaceOnUse"><path d="M-155.845 155.645H35.762v-191.61h-191.607Z"/></clipPath><clipPath id="v" clipPathUnits="userSpaceOnUse"><path d="M-149.919 128.413H41.688V-63.198h-191.607Z"/></clipPath></defs><path d="M0 0a48 48 0 0 0 2.213-16.001C1.379-42.53-20.814-63.359-47.376-62.533c-26.555.821-47.416 23.018-46.586 49.541.149 4.559.94 8.957 2.257 13.093a49.9 49.9 0 0 1-4.462-19.189c-.868-27.758 20.945-50.955 48.725-51.824 27.762-.866 50.979 20.918 51.85 48.685A50 50 0 0 1 0 0" clip-path="url(#a)" style="fill:#2c2c35;fill-opacity:1;fill-rule:evenodd;stroke:none" transform="matrix(1.33333 0 0 -1.33333 191.249 60.447)"/><path d="M0 0a15.9 15.9 0 0 0 2.191-5.773c.307-1.805.204-2.897.169-3.591-.047-.803-.474-3.097-.495-3.11-.008-.005.844 1.294 1.471 2.557.603 1.217 1.375 3.077 1.56 3.63.575 1.713 1.039 3.409 1.319 5.113.951 5.813.073 11.477-2.1 16.569-2.561 5.998-6.982 11.208-13.137 14.701-7.782 4.416-16.535 5.381-24.355 3.175-5.265-1.485-10.195-4.33-14.104-8.531-1.572-1.689-3.062-3.659-4.232-5.823-6.112-11.307-5.156-24.821 2.08-34.515 7.154-10.562 19.058-17.393 32.79-17.601 22.362-.329 40.926 17.588 41.246 39.923.334 22.345-17.527 40.731-39.89 41.044a40.16 40.16 0 0 1-22.839-6.653 38.1 38.1 0 0 0 14.944 4.219c20.456 1.467 38.364-13.509 39.774-33.169.542-7.585-1.566-15.51-5.778-21.757C6.43-15.801.678-20.776-6.703-23.054c-12.392-3.829-22.114 4.021-22.636 13.971-.116 2.226.315 5.088 1.664 7.761 2.236 4.43 7.167 8.493 13.834 8.602C-8.006 7.375-2.777 4.384 0 0" clip-path="url(#b)" style="fill:#2c2c35;fill-opacity:1;fill-rule:evenodd;stroke:none" transform="matrix(1.33333 0 0 -1.33333 151.517 92.512)"/><path d="M0 0c0-3.166 2.607-5.864 5.721-5.864S11.443-3.166 11.443 0c0 3.204-2.538 5.785-5.722 5.785C2.538 5.785 0 3.204 0 0m14.604-.073c0-4.935-4.038-8.859-8.883-8.859S-3.161-5.008-3.161-.073c0 4.959 3.968 8.928 8.882 8.928s8.883-3.969 8.883-8.928" clip-path="url(#c)" style="fill:#2c2c35;fill-opacity:1;fill-rule:nonzero;stroke:none" transform="matrix(1.33333 0 0 -1.33333 49.162 186.201)"/><path d="M0 0c0-1.362 1.108-2.148 2.375-2.148 1.201 0 2.216.899 2.216 2.148 0 1.865-1.569 2.422-2.975 2.88-1.132.371-2.1.693-2.954 1.57-.83.854-1.338 2.1-1.338 3.278 0 2.789 2.307 4.843 5.03 4.843 2.628 0 5.006-2.169 4.982-4.843H4.084c-.047 1.06-.924 1.773-1.915 1.773-1.039 0-1.707-.782-1.685-1.799-.022-1.246 1.132-1.729 2.145-2.075 1.2-.414 2.353-.762 3.322-1.568 1.223-.969 1.8-2.213 1.8-3.875 0-3.044-2.514-5.4-5.536-5.4-2.907 0-5.513 2.238-5.513 5.216z" clip-path="url(#d)" style="fill:#2c2c35;fill-opacity:1;fill-rule:nonzero;stroke:none" transform="matrix(1.33333 0 0 -1.33333 74.706 191.156)"/><path d="M0 0h-3.137v3.07h9.483V0H3.161v-13.978H0Z" clip-path="url(#e)" style="fill:#2c2c35;fill-opacity:1;fill-rule:nonzero;stroke:none" transform="matrix(1.33333 0 0 -1.33333 90.277 178.919)"/><path d="M0 0c.832 0 1.893.115 2.516.717.506.482.783 1.128.783 1.843 0 .739-.322 1.477-.923 1.917-.738.551-1.477.597-2.352.573h-1.753V0Zm-4.89 8.12H.048c1.614-.022 3.136-.115 4.428-1.198C5.698 5.903 6.46 4.312 6.46 2.721c0-1.243-.576-2.79-1.407-3.713-.831-.901-1.869-1.384-3.023-1.64l4.614-6.296H2.746l-4.475 6.53v-6.53H-4.89Z" clip-path="url(#f)" style="fill:#2c2c35;fill-opacity:1;fill-rule:nonzero;stroke:none" transform="matrix(1.33333 0 0 -1.33333 107.531 185.652)"/><path d="m0 0-1.822 5.167L-3.646 0Zm-3.069 9.573h2.468L6.576-7.475H3.092L1.246-3.068h-6.044L-6.69-7.475h-3.483z" clip-path="url(#g)" style="fill:#2c2c35;fill-opacity:1;fill-rule:nonzero;stroke:none" transform="matrix(1.33333 0 0 -1.33333 130.68 187.59)"/><path d="M0 0h3.32l4.59-12.966L12.502 0h3.32L9.225-17.048H6.619Z" clip-path="url(#h)" style="fill:#2c2c35;fill-opacity:1;fill-rule:nonzero;stroke:none" transform="matrix(1.33333 0 0 -1.33333 136.283 174.825)"/><path d="M0 0c0-1.362 1.108-2.148 2.377-2.148 1.202 0 2.216.899 2.216 2.148 0 1.865-1.571 2.422-2.977 2.88-1.131.371-2.099.693-2.953 1.57-.832.854-1.338 2.1-1.338 3.278 0 2.789 2.306 4.843 5.029 4.843 2.63 0 5.006-2.169 4.983-4.843H4.083c-.044 1.06-.922 1.773-1.915 1.773-1.038 0-1.705-.782-1.683-1.799C.463 6.456 1.616 5.973 2.63 5.627c1.199-.414 2.354-.762 3.322-1.568C7.176 3.09 7.753 1.846 7.753.184c0-3.044-2.516-5.4-5.537-5.4C-.69-5.216-3.299-2.978-3.299 0z" clip-path="url(#i)" style="fill:#2c2c35;fill-opacity:1;fill-rule:nonzero;stroke:none" transform="matrix(1.33333 0 0 -1.33333 162.404 191.156)"/><path d="M0 0h3.162v-7.383L8.467 0h3.783L5.814-8.373l6.436-8.675H8.467L3.162-9.573v-7.475H0Z" clip-path="url(#j)" style="fill:#2c2c35;fill-opacity:1;fill-rule:nonzero;stroke:none" transform="matrix(1.33333 0 0 -1.33333 175.668 174.825)"/><path d="m0 0-1.822 5.167L-3.646 0Zm-3.068 9.573H-.6L6.573-7.475H3.091L1.244-3.068h-6.043L-6.69-7.475h-3.484z" clip-path="url(#k)" style="fill:#2c2c35;fill-opacity:1;fill-rule:nonzero;stroke:none" transform="matrix(1.33333 0 0 -1.33333 206.439 187.59)"/><path d="M0 0c-2.306 0-3.885 1.389-3.885 4.5v7.13h1.146V4.5c0-2.336.96-3.45 2.755-3.45 1.764 0 2.739 1.114 2.739 3.45v7.13h1.146V4.5C3.901 1.389 2.322 0 0 0" clip-path="url(#l)" style="fill:#2c2c35;fill-opacity:1;fill-rule:nonzero;stroke:none" transform="matrix(1.33333 0 0 -1.33333 51.755 221.3)"/><path d="m0 0-6.811 10.054V0h-1.147v11.432h1.549L0 1.951v9.481h1.147V0Z" clip-path="url(#m)" style="fill:#2c2c35;fill-opacity:1;fill-rule:nonzero;stroke:none" transform="matrix(1.33333 0 0 -1.33333 77.512 221.035)"/><path d="M66.738 37.267h1.146V25.834h-1.146z" clip-path="url(#n)" style="fill:#2c2c35;fill-opacity:1;fill-rule:nonzero;stroke:none" transform="matrix(1.33333 0 0 -1.33333 0 255.481)"/><path d="M0 0h-1.114l-4.707 11.432h1.253L-.542 1.425l4.04 10.007h1.238z" clip-path="url(#o)" style="fill:#2c2c35;fill-opacity:1;fill-rule:nonzero;stroke:none" transform="matrix(1.33333 0 0 -1.33333 106.858 221.035)"/><path d="M0 0v11.432h6.253v-1.037H1.146v-4.1h4.937V5.258H1.146v-4.22h5.107V0Z" clip-path="url(#p)" style="fill:#2c2c35;fill-opacity:1;fill-rule:nonzero;stroke:none" transform="matrix(1.33333 0 0 -1.33333 121.758 221.035)"/><path d="m0 0 3.205-4.271H1.782L-2.074.911c3.204 0 4.291.56 4.291 2.613 0 1.904-1.179 2.6-3.842 2.6h-1.609V-4.271h-1.144V7.161h2.832c3.591 0 4.922-1.301 4.922-3.682C3.376 1.453 2.199.232 0 0" clip-path="url(#q)" style="fill:#2c2c35;fill-opacity:1;fill-rule:nonzero;stroke:none" transform="matrix(1.33333 0 0 -1.33333 145.467 215.34)"/><path d="M0 0v1.038l5.619 9.357H.17v1.037h6.732v-1.037L1.299 1.038h5.775V0Z" clip-path="url(#r)" style="fill:#2c2c35;fill-opacity:1;fill-rule:nonzero;stroke:none" transform="matrix(1.33333 0 0 -1.33333 157.749 221.035)"/><path d="M131.763 37.267h1.145V25.834h-1.145z" clip-path="url(#s)" style="fill:#2c2c35;fill-opacity:1;fill-rule:nonzero;stroke:none" transform="matrix(1.33333 0 0 -1.33333 0 255.481)"/><path d="M0 0v-10.395h-1.144V0h-2.617v1.037h6.378V0Z" clip-path="url(#t)" style="fill:#2c2c35;fill-opacity:1;fill-rule:nonzero;stroke:none" transform="matrix(1.33333 0 0 -1.33333 190.747 207.175)"/><path d="m0 0-2.242-5.242H2.2Zm4.305-10.131L2.648-6.276h-5.326l-1.671-3.855h-1.206L-.648 1.301H.637l4.921-11.432z" clip-path="url(#u)" style="fill:#2c2c35;fill-opacity:1;fill-rule:nonzero;stroke:none" transform="matrix(1.33333 0 0 -1.33333 207.793 207.527)"/><path d="m0 0 6.145 1.825.715-2.379L.669-2.171Z" clip-path="url(#v)" style="fill:#2c2c35;fill-opacity:1;fill-rule:nonzero;stroke:none" transform="matrix(1.33333 0 0 -1.33333 199.892 171.217)"/></svg>