<svg xmlns="http://www.w3.org/2000/svg" viewBox="0 0 249.947 249.947"><g style="isolation:isolate"><g fill="#5948ad" data-name="Layer 1" style="mix-blend-mode:multiply"><path d="M125.02 50.833a2.647 2.647 0 0 0 2.636-2.635V2.6a2.636 2.636 0 0 0-5.271 0v45.6a2.69 2.69 0 0 0 2.635 2.633M105.83 53.347a2.646 2.646 0 0 0 1.863-3.228l-11.8-44.04A2.636 2.636 0 0 0 90.8 7.443l11.8 44.041a2.69 2.69 0 0 0 3.23 1.863M87.944 60.743a2.65 2.65 0 0 0 .965-3.6l-22.8-39.485a2.635 2.635 0 0 0-4.564 2.635l22.8 39.486a2.69 2.69 0 0 0 3.599.964M72.581 72.515a2.647 2.647 0 0 0 0-3.727l-32.24-32.24a2.636 2.636 0 0 0-3.727 3.727l32.24 32.24a2.69 2.69 0 0 0 3.727 0M60.79 87.863a2.65 2.65 0 0 0-.965-3.6l-39.486-22.8A2.636 2.636 0 0 0 17.7 66.03l39.485 22.8a2.69 2.69 0 0 0 3.605-.967M53.372 105.739a2.65 2.65 0 0 0-1.864-3.228l-44.041-11.8A2.635 2.635 0 0 0 6.1 95.8l44.041 11.8a2.69 2.69 0 0 0 3.231-1.861M50.833 124.926a2.647 2.647 0 0 0-2.635-2.635H2.6a2.636 2.636 0 0 0 0 5.271h45.6a2.69 2.69 0 0 0 2.633-2.636M53.347 144.117a2.65 2.65 0 0 0-3.228-1.864l-44.04 11.8a2.635 2.635 0 0 0 1.364 5.091l44.041-11.8a2.69 2.69 0 0 0 1.863-3.227M60.743 162a2.65 2.65 0 0 0-3.6-.965l-39.485 22.8a2.636 2.636 0 0 0 2.635 4.565l39.486-22.8a2.69 2.69 0 0 0 .964-3.6M72.515 177.365a2.647 2.647 0 0 0-3.727 0l-32.24 32.24a2.636 2.636 0 0 0 3.727 3.727l32.24-32.24a2.69 2.69 0 0 0 0-3.727M87.863 189.157a2.65 2.65 0 0 0-3.6.965l-22.8 39.486a2.636 2.636 0 0 0 4.565 2.635l22.8-39.486a2.69 2.69 0 0 0-.965-3.6M105.739 196.575a2.65 2.65 0 0 0-3.228 1.864l-11.8 44.04a2.636 2.636 0 0 0 5.091 1.365L107.6 199.8a2.69 2.69 0 0 0-1.861-3.225M124.926 199.113a2.65 2.65 0 0 0-2.635 2.636v45.594a2.636 2.636 0 0 0 5.271 0v-45.594a2.69 2.69 0 0 0-2.636-2.636M144.117 196.6a2.65 2.65 0 0 0-1.864 3.228l11.8 44.041a2.635 2.635 0 0 0 5.091-1.364l-11.8-44.041a2.69 2.69 0 0 0-3.227-1.864M162 189.2a2.647 2.647 0 0 0-.965 3.6l22.8 39.486a2.636 2.636 0 0 0 4.565-2.636l-22.8-39.485a2.69 2.69 0 0 0-3.6-.965M177.365 177.431a2.65 2.65 0 0 0 0 3.728l32.24 32.24a2.636 2.636 0 0 0 3.727-3.728l-32.24-32.24a2.69 2.69 0 0 0-3.727 0M189.157 162.084a2.647 2.647 0 0 0 .965 3.6l39.486 22.8a2.636 2.636 0 0 0 2.635-4.565l-39.486-22.8a2.69 2.69 0 0 0-3.6.965M196.575 144.207a2.65 2.65 0 0 0 1.864 3.228l44.04 11.8a2.636 2.636 0 0 0 1.365-5.091l-44.041-11.8a2.69 2.69 0 0 0-3.228 1.863M199.113 125.02a2.65 2.65 0 0 0 2.636 2.636h45.594a2.636 2.636 0 0 0 0-5.271h-45.594a2.69 2.69 0 0 0-2.636 2.635M196.6 105.83a2.647 2.647 0 0 0 3.228 1.863l44.041-11.8A2.636 2.636 0 0 0 242.5 90.8l-44.041 11.8a2.69 2.69 0 0 0-1.859 3.23M189.2 87.944a2.65 2.65 0 0 0 3.6.965l39.486-22.8a2.635 2.635 0 0 0-2.636-4.564l-39.485 22.8a2.69 2.69 0 0 0-.965 3.599M177.431 72.581a2.65 2.65 0 0 0 3.728 0l32.24-32.24a2.636 2.636 0 0 0-3.728-3.727l-32.24 32.24a2.69 2.69 0 0 0 0 3.727M162.084 60.79a2.65 2.65 0 0 0 3.6-.965l22.8-39.486a2.636 2.636 0 0 0-4.565-2.635l-22.8 39.485a2.69 2.69 0 0 0 .965 3.601M144.207 53.372a2.65 2.65 0 0 0 3.228-1.864l11.8-44.041a2.635 2.635 0 0 0-5.09-1.367l-11.8 44.041a2.69 2.69 0 0 0 1.862 3.231M139.124 143.492a2.65 2.65 0 0 0-.486 3.7l27.756 36.172a2.636 2.636 0 0 0 4.182-3.209l-27.756-36.176a2.69 2.69 0 0 0-3.696-.487M143.435 139.2a2.647 2.647 0 0 0 .487 3.695l36.172 27.756a2.636 2.636 0 0 0 3.209-4.182l-36.172-27.756a2.69 2.69 0 0 0-3.696.487M146.488 133.936a2.647 2.647 0 0 0 1.426 3.443l42.124 17.448a2.635 2.635 0 0 0 2.017-4.869l-42.123-17.449a2.69 2.69 0 0 0-3.444 1.427M103.423 133.849a2.65 2.65 0 0 0-3.444-1.426l-42.124 17.448a2.636 2.636 0 0 0 2.018 4.87L102 137.293a2.69 2.69 0 0 0 1.423-3.444M106.454 139.124a2.647 2.647 0 0 0-3.695-.486l-36.173 27.756a2.636 2.636 0 0 0 3.209 4.182l36.173-27.756a2.69 2.69 0 0 0 .486-3.696M110.748 143.435a2.65 2.65 0 0 0-3.7.487L79.3 180.094a2.636 2.636 0 0 0 4.182 3.209l27.756-36.172a2.69 2.69 0 0 0-.49-3.696M116.011 146.488a2.65 2.65 0 0 0-3.444 1.426l-17.448 42.124a2.636 2.636 0 0 0 4.87 2.017l17.448-42.123a2.69 2.69 0 0 0-1.426-3.444M121.885 148.075a2.647 2.647 0 0 0-2.957 2.269l-5.952 45.2a2.636 2.636 0 0 0 5.226.688l5.952-45.2a2.69 2.69 0 0 0-2.269-2.957M127.969 148.087a2.647 2.647 0 0 0-2.269 2.957l5.951 45.2a2.636 2.636 0 0 0 5.226-.688l-5.951-45.2a2.69 2.69 0 0 0-2.957-2.269M133.849 146.524a2.647 2.647 0 0 0-1.426 3.443l17.448 42.124a2.636 2.636 0 0 0 4.87-2.017l-17.448-42.124a2.69 2.69 0 0 0-3.444-1.426M148.075 128.062a2.647 2.647 0 0 0 2.269 2.957l45.2 5.951a2.636 2.636 0 0 0 .688-5.226l-45.2-5.951a2.69 2.69 0 0 0-2.957 2.269M148.087 121.978a2.65 2.65 0 0 0 2.957 2.269l45.2-5.952a2.636 2.636 0 0 0-.688-5.226l-45.2 5.952a2.69 2.69 0 0 0-2.269 2.957M146.524 116.1a2.65 2.65 0 0 0 3.444 1.427l42.123-17.448a2.636 2.636 0 0 0-2.017-4.87l-42.124 17.445a2.69 2.69 0 0 0-1.426 3.446M143.492 110.822a2.65 2.65 0 0 0 3.7.487l36.168-27.756a2.636 2.636 0 0 0-3.209-4.182l-36.172 27.756a2.69 2.69 0 0 0-.487 3.695M139.2 106.511a2.647 2.647 0 0 0 3.695-.486l27.755-36.173a2.636 2.636 0 0 0-4.182-3.208l-27.756 36.172a2.69 2.69 0 0 0 .488 3.695M133.936 103.458a2.646 2.646 0 0 0 3.443-1.426l17.448-42.124a2.635 2.635 0 0 0-4.869-2.017l-17.449 42.124a2.69 2.69 0 0 0 1.427 3.443M121.978 101.86a2.65 2.65 0 0 0 2.269-2.957L118.3 53.7a2.636 2.636 0 0 0-5.226.688l5.952 45.2a2.69 2.69 0 0 0 2.952 2.272M116.1 103.423a2.65 2.65 0 0 0 1.427-3.444l-17.451-42.124a2.636 2.636 0 0 0-4.87 2.018L112.654 102a2.69 2.69 0 0 0 3.446 1.423M110.822 106.454a2.647 2.647 0 0 0 .487-3.695L83.553 66.586a2.636 2.636 0 0 0-4.182 3.214l27.756 36.173a2.69 2.69 0 0 0 3.695.481M106.511 110.748a2.65 2.65 0 0 0-.486-3.7L69.852 79.3a2.636 2.636 0 0 0-3.208 4.182l36.172 27.756a2.69 2.69 0 0 0 3.695-.49M103.458 116.011a2.65 2.65 0 0 0-1.426-3.444L59.908 95.119a2.636 2.636 0 0 0-2.017 4.87l42.124 17.448a2.69 2.69 0 0 0 3.443-1.426M101.872 121.885a2.647 2.647 0 0 0-2.269-2.957l-45.2-5.952a2.636 2.636 0 0 0-.688 5.226l45.2 5.952a2.69 2.69 0 0 0 2.957-2.269M101.86 127.969a2.647 2.647 0 0 0-2.96-2.269l-45.2 5.951a2.636 2.636 0 0 0 .688 5.226l45.2-5.951a2.69 2.69 0 0 0 2.272-2.957M128.062 101.872a2.647 2.647 0 0 0 2.957-2.269l5.951-45.2a2.636 2.636 0 0 0-5.226-.688l-5.951 45.2a2.69 2.69 0 0 0 2.269 2.957"/></g></g></svg>