<svg xmlns="http://www.w3.org/2000/svg" id="Vrstva_1" data-name="Vrstva 1" viewBox="15.863492063492064 12.699733333333334 33.31333333333333 33.336800000000004" width="84" height="84"><title>uhk-abb_xs</title><polygon points="22.58 32.5 22.58 36.95 25.32 39.69 28.65 39.69 27.66 36.95 25.32 36.95 25.32 32.5 22.58 29.76 25.32 27.03 25.32 22.58 27.66 22.58 28.65 19.84 25.32 19.84 22.58 22.58 22.58 27.03 19.84 29.76 22.58 32.5"/><polygon points="39.69 36.95 37.35 36.95 36.35 39.69 39.69 39.69 42.42 36.95 42.42 32.5 45.16 29.76 42.42 27.03 42.42 22.58 39.69 19.84 36.35 19.84 37.35 22.58 39.69 22.58 39.69 27.03 42.42 29.76 39.69 32.5 39.69 36.95"/><path d="M50.66,30.52v-6H52.2v6a2.57,2.57,0,1,0,5.13,0v-6h1.54v6a3.78,3.78,0,0,1-4.11,4.08A3.78,3.78,0,0,1,50.66,30.52Z"/><path d="M61.12,24.55h1.54v4.26h5.22V24.55h1.53v9.87H67.89V30.1H62.67v4.32H61.12Z"/><path d="M71.91,24.55h1.54v9.87H71.91Zm8.19,9.87h-1.9l-4.29-4.75,4.27-5.11h1.71l-4.29,5Z"/></svg>