<svg xmlns="http://www.w3.org/2000/svg" viewBox="347.869 277.881 138.948 138.941"><defs><clipPath id="a" clipPathUnits="userSpaceOnUse"><path d="M0 841.89h595.276V0H0Z"/></clipPath><clipPath id="b" clipPathUnits="userSpaceOnUse"><path d="M0 841.89h595.276V0H0Z"/></clipPath><clipPath id="c" clipPathUnits="userSpaceOnUse"><path d="M0 841.89h595.276V0H0Z"/></clipPath><clipPath id="d" clipPathUnits="userSpaceOnUse"><path d="M0 841.89h595.276V0H0Z"/></clipPath><clipPath id="e" clipPathUnits="userSpaceOnUse"><path d="M0 841.89h595.276V0H0Z"/></clipPath><clipPath id="f" clipPathUnits="userSpaceOnUse"><path d="M0 841.89h595.276V0H0Z"/></clipPath><clipPath id="g" clipPathUnits="userSpaceOnUse"><path d="M0 841.89h595.276V0H0Z"/></clipPath><clipPath id="h" clipPathUnits="userSpaceOnUse"><path d="M0 841.89h595.276V0H0Z"/></clipPath><clipPath id="i" clipPathUnits="userSpaceOnUse"><path d="M0 841.89h595.276V0H0Z"/></clipPath><clipPath id="j" clipPathUnits="userSpaceOnUse"><path d="M0 841.89h595.276V0H0Z"/></clipPath><clipPath id="k" clipPathUnits="userSpaceOnUse"><path d="M0 841.89h595.276V0H0Z"/></clipPath><clipPath id="l" clipPathUnits="userSpaceOnUse"><path d="M0 841.89h595.276V0H0Z"/></clipPath><clipPath id="m" clipPathUnits="userSpaceOnUse"><path d="M0 841.89h595.276V0H0Z"/></clipPath><clipPath id="n" clipPathUnits="userSpaceOnUse"><path d="M0 841.89h595.276V0H0Z"/></clipPath><clipPath id="o" clipPathUnits="userSpaceOnUse"><path d="M0 841.89h595.276V0H0Z"/></clipPath><clipPath id="p" clipPathUnits="userSpaceOnUse"><path d="M0 841.89h595.276V0H0Z"/></clipPath><clipPath id="q" clipPathUnits="userSpaceOnUse"><path d="M0 841.89h595.276V0H0Z"/></clipPath><clipPath id="r" clipPathUnits="userSpaceOnUse"><path d="M0 841.89h595.276V0H0Z"/></clipPath><clipPath id="s" clipPathUnits="userSpaceOnUse"><path d="M0 841.89h595.276V0H0Z"/></clipPath><clipPath id="t" clipPathUnits="userSpaceOnUse"><path d="M0 841.89h595.276V0H0Z"/></clipPath><clipPath id="u" clipPathUnits="userSpaceOnUse"><path d="M0 841.89h595.276V0H0Z"/></clipPath><clipPath id="v" clipPathUnits="userSpaceOnUse"><path d="M0 841.89h595.276V0H0Z"/></clipPath><clipPath id="w" clipPathUnits="userSpaceOnUse"><path d="M0 841.89h595.276V0H0Z"/></clipPath><clipPath id="x" clipPathUnits="userSpaceOnUse"><path d="M0 841.89h595.276V0H0Z"/></clipPath><clipPath id="y" clipPathUnits="userSpaceOnUse"><path d="M0 841.89h595.276V0H0Z"/></clipPath><clipPath id="z" clipPathUnits="userSpaceOnUse"><path d="M0 841.89h595.276V0H0Z"/></clipPath><clipPath id="A" clipPathUnits="userSpaceOnUse"><path d="M0 841.89h595.276V0H0Z"/></clipPath><clipPath id="B" clipPathUnits="userSpaceOnUse"><path d="M0 841.89h595.276V0H0Z"/></clipPath><clipPath id="C" clipPathUnits="userSpaceOnUse"><path d="M0 841.89h595.276V0H0Z"/></clipPath><clipPath id="D" clipPathUnits="userSpaceOnUse"><path d="M0 841.89h595.276V0H0Z"/></clipPath><clipPath id="E" clipPathUnits="userSpaceOnUse"><path d="M0 841.89h595.276V0H0Z"/></clipPath><clipPath id="F" clipPathUnits="userSpaceOnUse"><path d="M0 841.89h595.276V0H0Z"/></clipPath><clipPath id="G" clipPathUnits="userSpaceOnUse"><path d="M0 841.89h595.276V0H0Z"/></clipPath><clipPath id="H" clipPathUnits="userSpaceOnUse"><path d="M0 841.89h595.276V0H0Z"/></clipPath><clipPath id="I" clipPathUnits="userSpaceOnUse"><path d="M0 841.89h595.276V0H0Z"/></clipPath><clipPath id="J" clipPathUnits="userSpaceOnUse"><path d="M0 841.89h595.276V0H0Z"/></clipPath><clipPath id="K" clipPathUnits="userSpaceOnUse"><path d="M0 841.89h595.276V0H0Z"/></clipPath><clipPath id="L" clipPathUnits="userSpaceOnUse"><path d="M0 841.89h595.276V0H0Z"/></clipPath><clipPath id="M" clipPathUnits="userSpaceOnUse"><path d="M0 841.89h595.276V0H0Z"/></clipPath><clipPath id="N" clipPathUnits="userSpaceOnUse"><path d="M0 841.89h595.276V0H0Z"/></clipPath><clipPath id="O" clipPathUnits="userSpaceOnUse"><path d="M0 841.89h595.276V0H0Z"/></clipPath><clipPath id="P" clipPathUnits="userSpaceOnUse"><path d="M0 841.89h595.276V0H0Z"/></clipPath><clipPath id="Q" clipPathUnits="userSpaceOnUse"><path d="M0 841.89h595.276V0H0Z"/></clipPath><clipPath id="R" clipPathUnits="userSpaceOnUse"><path d="M0 841.89h595.276V0H0Z"/></clipPath><clipPath id="S" clipPathUnits="userSpaceOnUse"><path d="M0 841.89h595.276V0H0Z"/></clipPath><clipPath id="T" clipPathUnits="userSpaceOnUse"><path d="M0 841.89h595.276V0H0Z"/></clipPath><clipPath id="U" clipPathUnits="userSpaceOnUse"><path d="M0 841.89h595.276V0H0Z"/></clipPath><clipPath id="V" clipPathUnits="userSpaceOnUse"><path d="M0 841.89h595.276V0H0Z"/></clipPath><clipPath id="W" clipPathUnits="userSpaceOnUse"><path d="M0 841.89h595.276V0H0Z"/></clipPath><clipPath id="X" clipPathUnits="userSpaceOnUse"><path d="M0 841.89h595.276V0H0Z"/></clipPath><clipPath id="Y" clipPathUnits="userSpaceOnUse"><path d="M0 841.89h595.276V0H0Z"/></clipPath><clipPath id="Z" clipPathUnits="userSpaceOnUse"><path d="M0 841.89h595.276V0H0Z"/></clipPath><clipPath id="aa" clipPathUnits="userSpaceOnUse"><path d="M0 841.89h595.276V0H0Z"/></clipPath><clipPath id="ab" clipPathUnits="userSpaceOnUse"><path d="M0 841.89h595.276V0H0Z"/></clipPath><clipPath id="ac" clipPathUnits="userSpaceOnUse"><path d="M0 841.89h595.276V0H0Z"/></clipPath><clipPath id="ad" clipPathUnits="userSpaceOnUse"><path d="M0 841.89h595.276V0H0Z"/></clipPath><clipPath id="ae" clipPathUnits="userSpaceOnUse"><path d="M0 841.89h595.276V0H0Z"/></clipPath><clipPath id="af" clipPathUnits="userSpaceOnUse"><path d="M0 841.89h595.276V0H0Z"/></clipPath><clipPath id="ag" clipPathUnits="userSpaceOnUse"><path d="M0 841.89h595.276V0H0Z"/></clipPath><clipPath id="ah" clipPathUnits="userSpaceOnUse"><path d="M0 841.89h595.276V0H0Z"/></clipPath><clipPath id="ai" clipPathUnits="userSpaceOnUse"><path d="M0 841.89h595.276V0H0Z"/></clipPath><clipPath id="aj" clipPathUnits="userSpaceOnUse"><path d="M0 841.89h595.276V0H0Z"/></clipPath><clipPath id="ak" clipPathUnits="userSpaceOnUse"><path d="M0 841.89h595.276V0H0Z"/></clipPath><clipPath id="al" clipPathUnits="userSpaceOnUse"><path d="M0 841.89h595.276V0H0Z"/></clipPath><clipPath id="am" clipPathUnits="userSpaceOnUse"><path d="M0 841.89h595.276V0H0Z"/></clipPath><clipPath id="an" clipPathUnits="userSpaceOnUse"><path d="M0 841.89h595.276V0H0Z"/></clipPath><clipPath id="ao" clipPathUnits="userSpaceOnUse"><path d="M0 841.89h595.276V0H0Z"/></clipPath><clipPath id="ap" clipPathUnits="userSpaceOnUse"><path d="M0 841.89h595.276V0H0Z"/></clipPath><clipPath id="aq" clipPathUnits="userSpaceOnUse"><path d="M0 841.89h595.276V0H0Z"/></clipPath><clipPath id="ar" clipPathUnits="userSpaceOnUse"><path d="M0 841.89h595.276V0H0Z"/></clipPath><clipPath id="as" clipPathUnits="userSpaceOnUse"><path d="M0 841.89h595.276V0H0Z"/></clipPath><clipPath id="at" clipPathUnits="userSpaceOnUse"><path d="M0 841.89h595.276V0H0Z"/></clipPath><clipPath id="au" clipPathUnits="userSpaceOnUse"><path d="M0 841.89h595.276V0H0Z"/></clipPath><clipPath id="av" clipPathUnits="userSpaceOnUse"><path d="M0 841.89h595.276V0H0Z"/></clipPath><clipPath id="aw" clipPathUnits="userSpaceOnUse"><path d="M0 841.89h595.276V0H0Z"/></clipPath><clipPath id="ax" clipPathUnits="userSpaceOnUse"><path d="M0 841.89h595.276V0H0Z"/></clipPath><clipPath id="ay" clipPathUnits="userSpaceOnUse"><path d="M0 841.89h595.276V0H0Z"/></clipPath><clipPath id="az" clipPathUnits="userSpaceOnUse"><path d="M0 841.89h595.276V0H0Z"/></clipPath><clipPath id="aA" clipPathUnits="userSpaceOnUse"><path d="M0 841.89h595.276V0H0Z"/></clipPath><clipPath id="aB" clipPathUnits="userSpaceOnUse"><path d="M0 841.89h595.276V0H0Z"/></clipPath><clipPath id="aC" clipPathUnits="userSpaceOnUse"><path d="M0 841.89h595.276V0H0Z"/></clipPath><clipPath id="aD" clipPathUnits="userSpaceOnUse"><path d="M0 841.89h595.276V0H0Z"/></clipPath><clipPath id="aE" clipPathUnits="userSpaceOnUse"><path d="M0 841.89h595.276V0H0Z"/></clipPath><clipPath id="aF" clipPathUnits="userSpaceOnUse"><path d="M0 841.89h595.276V0H0Z"/></clipPath><clipPath id="aG" clipPathUnits="userSpaceOnUse"><path d="M0 841.89h595.276V0H0Z"/></clipPath><clipPath id="aH" clipPathUnits="userSpaceOnUse"><path d="M0 841.89h595.276V0H0Z"/></clipPath><clipPath id="aI" clipPathUnits="userSpaceOnUse"><path d="M0 841.89h595.276V0H0Z"/></clipPath><clipPath id="aJ" clipPathUnits="userSpaceOnUse"><path d="M0 841.89h595.276V0H0Z"/></clipPath><clipPath id="aK" clipPathUnits="userSpaceOnUse"><path d="M0 841.89h595.276V0H0Z"/></clipPath><clipPath id="aL" clipPathUnits="userSpaceOnUse"><path d="M0 841.89h595.276V0H0Z"/></clipPath><clipPath id="aM" clipPathUnits="userSpaceOnUse"><path d="M0 841.89h595.276V0H0Z"/></clipPath><clipPath id="aN" clipPathUnits="userSpaceOnUse"><path d="M0 841.89h595.276V0H0Z"/></clipPath><clipPath id="aO" clipPathUnits="userSpaceOnUse"><path d="M0 841.89h595.276V0H0Z"/></clipPath><clipPath id="aP" clipPathUnits="userSpaceOnUse"><path d="M0 841.89h595.276V0H0Z"/></clipPath><clipPath id="aQ" clipPathUnits="userSpaceOnUse"><path d="M0 841.89h595.276V0H0Z"/></clipPath><clipPath id="aR" clipPathUnits="userSpaceOnUse"><path d="M0 841.89h595.276V0H0Z"/></clipPath></defs><path d="M264.582 260.431v-3.881l-20.186 15.824h4.954z" clip-path="url(#a)" style="fill:#46ae33;fill-opacity:1;fill-rule:nonzero;stroke:none" transform="matrix(1.33333 0 0 -1.33333 0 1122.52)"/><path d="M276.73 260.431v-3.881l-20.183 15.824h4.949z" clip-path="url(#b)" style="fill:#fbbf16;fill-opacity:1;fill-rule:nonzero;stroke:none" transform="matrix(1.33333 0 0 -1.33333 0 1122.52)"/><path d="M252.434 260.431v-3.881l-20.186 15.824h4.951z" clip-path="url(#c)" style="fill:#7b7678;fill-opacity:1;fill-rule:nonzero;stroke:none" transform="matrix(1.33333 0 0 -1.33333 0 1122.52)"/><path d="M288.881 260.431v-3.881l-20.188 15.824h4.953z" clip-path="url(#d)" style="fill:#f4731c;fill-opacity:1;fill-rule:nonzero;stroke:none" transform="matrix(1.33333 0 0 -1.33333 0 1122.52)"/><path d="M301.029 260.431v-3.881l-20.185 15.824h4.949z" clip-path="url(#e)" style="fill:#e51636;fill-opacity:1;fill-rule:nonzero;stroke:none" transform="matrix(1.33333 0 0 -1.33333 0 1122.52)"/><path d="M313.176 260.431v-3.881l-20.186 15.824h4.953z" clip-path="url(#f)" style="fill:#007582;fill-opacity:1;fill-rule:nonzero;stroke:none" transform="matrix(1.33333 0 0 -1.33333 0 1122.52)"/><path d="M325.324 260.431v-3.881l-20.183 15.824h4.951z" clip-path="url(#g)" style="fill:#f1499c;fill-opacity:1;fill-rule:nonzero;stroke:none" transform="matrix(1.33333 0 0 -1.33333 0 1122.52)"/><path d="m337.473 256.55-20.184 15.824h4.951l15.233-11.943z" clip-path="url(#h)" style="fill:#2f97da;fill-opacity:1;fill-rule:nonzero;stroke:none" transform="matrix(1.33333 0 0 -1.33333 0 1122.52)"/><path d="M231.706 280.265h.742v-2.774c0-.879-.287-1.297-1.256-1.297-.98 0-1.267.418-1.267 1.297v2.774h.742v-2.709c0-.381.027-.764.53-.764.483 0 .509.383.509.764z" clip-path="url(#i)" style="fill:#231f20;fill-opacity:1;fill-rule:nonzero;stroke:none" transform="matrix(1.33333 0 0 -1.33333 0 1122.52)"/><path d="M235.098 280.265h.742v-3.977h-.775l-.577 1.416c-.196.471-.354.953-.53 1.58h-.01c.026-.33.058-.732.079-1.135.021-.398.037-.795.037-1.113v-.748h-.742v3.977h.769l.578-1.448c.19-.461.35-.933.529-1.58h.011c-.026.362-.053.748-.074 1.129s-.037.764-.037 1.119z" clip-path="url(#j)" style="fill:#231f20;fill-opacity:1;fill-rule:nonzero;stroke:none" transform="matrix(1.33333 0 0 -1.33333 0 1122.52)"/><path d="M236.726 280.265h.741v-3.977h-.741z" clip-path="url(#k)" style="fill:#231f20;fill-opacity:1;fill-rule:nonzero;stroke:none" transform="matrix(1.33333 0 0 -1.33333 0 1122.52)"/><path d="M240.038 280.265h.795l-.859-3.977h-.991l-.88 3.977h.794l.467-2.551c.043-.223.069-.449.09-.678.011-.105.032-.217.032-.328h.011c0 .111.022.223.031.328.022.229.048.455.09.678z" clip-path="url(#l)" style="fill:#231f20;fill-opacity:1;fill-rule:nonzero;stroke:none" transform="matrix(1.33333 0 0 -1.33333 0 1122.52)"/><path d="M241.437 276.288v3.977h2.087v-.584h-1.345v-1.002h1.24v-.582h-1.24v-1.225h1.345v-.584z" clip-path="url(#m)" style="fill:#231f20;fill-opacity:1;fill-rule:nonzero;stroke:none" transform="matrix(1.33333 0 0 -1.33333 0 1122.52)"/><path d="M244.998 278.583h.583c.244.018.435.176.435.572 0 .446-.186.52-.466.526h-.552zm0-.582v-1.713h-.742v3.977h1.405c.641 0 1.129-.223 1.129-.955 0-.434-.111-.891-.61-.959v-.01c.44-.059.573-.34.573-.723 0-.164-.022-1.139.158-1.256v-.074h-.816c-.09.256-.074.742-.079 1.008-.005.244 0 .578-.255.652-.201.059-.418.053-.631.053z" clip-path="url(#n)" style="fill:#231f20;fill-opacity:1;fill-rule:nonzero;stroke:none" transform="matrix(1.33333 0 0 -1.33333 0 1122.52)"/><path d="m247.478 276.882 1.277 2.465c.064.117.117.238.207.349-.096-.015-.191-.015-.286-.015h-1.113v.584h2.172v-.594l-1.277-2.465c-.062-.117-.116-.238-.206-.35.095.016.19.016.286.016h1.246v-.584h-2.306z" clip-path="url(#o)" style="fill:#231f20;fill-opacity:1;fill-rule:nonzero;stroke:none" transform="matrix(1.33333 0 0 -1.33333 0 1122.52)"/><path d="M250.478 280.265h.742v-3.977h-.742z" clip-path="url(#p)" style="fill:#231f20;fill-opacity:1;fill-rule:nonzero;stroke:none" transform="matrix(1.33333 0 0 -1.33333 0 1122.52)"/><path d="M251.835 280.265h2.475v-.584h-.864v-3.393h-.742v3.393h-.869z" clip-path="url(#q)" style="fill:#231f20;fill-opacity:1;fill-rule:nonzero;stroke:none" transform="matrix(1.33333 0 0 -1.33333 0 1122.52)"/><path d="M255.417 277.878h.637l-.201 1.129c-.038.185-.053.367-.075.553a4 4 0 0 1-.027.263h-.01a4 4 0 0 1-.027-.263c-.021-.186-.037-.368-.074-.553zm-1.107-1.59.949 3.977h1.002l.9-3.977h-.795l-.196 1.008h-.869l-.197-1.008z" clip-path="url(#r)" style="fill:#231f20;fill-opacity:1;fill-rule:nonzero;stroke:none" transform="matrix(1.33333 0 0 -1.33333 0 1122.52)"/><path d="M259.636 277.55v-.492c.006-.143.058-.266.238-.266.266 0 .271.201.271.42v3.053h.742v-2.901c0-.269.02-.656-.218-.912-.217-.232-.545-.258-.906-.258a.88.88 0 0 0-.763.407c-.091.144-.128.584-.106.949z" clip-path="url(#s)" style="fill:#231f20;fill-opacity:1;fill-rule:nonzero;stroke:none" transform="matrix(1.33333 0 0 -1.33333 0 1122.52)"/><path d="M261.899 276.989h.699v-.701h-.699z" clip-path="url(#t)" style="fill:#231f20;fill-opacity:1;fill-rule:nonzero;stroke:none" transform="matrix(1.33333 0 0 -1.33333 0 1122.52)"/><path d="M264.368 276.288v3.977h2.088v-.584h-1.346v-1.002h1.241v-.582h-1.241v-1.225h1.346v-.584z" clip-path="url(#u)" style="fill:#231f20;fill-opacity:1;fill-rule:nonzero;stroke:none" transform="matrix(1.33333 0 0 -1.33333 0 1122.52)"/><path d="M267.374 276.989h.699v-.701h-.699z" clip-path="url(#v)" style="fill:#231f20;fill-opacity:1;fill-rule:nonzero;stroke:none" transform="matrix(1.33333 0 0 -1.33333 0 1122.52)"/><path d="M270.819 278.536h.397c.324 0 .541.139.541.619 0 .457-.18.526-.6.526h-.338zm-.742-2.248v3.977h1.516c.71 0 .928-.573.928-1.129 0-.34-.091-.721-.372-.944-.234-.185-.546-.244-.832-.24h-.498v-1.664z" clip-path="url(#w)" style="fill:#231f20;fill-opacity:1;fill-rule:nonzero;stroke:none" transform="matrix(1.33333 0 0 -1.33333 0 1122.52)"/><path d="M274.963 280.265h.742v-2.774c0-.879-.286-1.297-1.257-1.297-.98 0-1.265.418-1.265 1.297v2.774h.742v-2.709c0-.381.025-.764.529-.764.483 0 .509.383.509.764z" clip-path="url(#x)" style="fill:#231f20;fill-opacity:1;fill-rule:nonzero;stroke:none" transform="matrix(1.33333 0 0 -1.33333 0 1122.52)"/><path d="M277.312 278.583h.582c.244.018.435.176.435.572 0 .446-.185.52-.467.526h-.55zm0-.582v-1.713h-.743v3.977h1.405c.64 0 1.129-.223 1.129-.955 0-.434-.112-.891-.61-.959v-.01c.44-.059.572-.34.572-.723 0-.164-.021-1.139.159-1.256v-.074h-.816c-.091.256-.074.742-.079 1.008-.006.244 0 .578-.255.652-.202.059-.419.053-.631.053z" clip-path="url(#y)" style="fill:#231f20;fill-opacity:1;fill-rule:nonzero;stroke:none" transform="matrix(1.33333 0 0 -1.33333 0 1122.52)"/><path d="M279.977 276.288v3.977h.742v-1.766h.01c.117.313.307.662.466.953l.435.813h.838l-.981-1.707 1.028-2.27h-.837l-.7 1.57-.259-.429v-1.141z" clip-path="url(#z)" style="fill:#231f20;fill-opacity:1;fill-rule:nonzero;stroke:none" transform="matrix(1.33333 0 0 -1.33333 0 1122.52)"/><path d="M284.015 279.22c.08-.196.142-.399.175-.61h.01c.053.307.154.53.244.752l.356.903h.81l-1.049-2.286v-1.691h-.742v1.691l-1.034 2.286h.812z" clip-path="url(#A)" style="fill:#231f20;fill-opacity:1;fill-rule:nonzero;stroke:none" transform="matrix(1.33333 0 0 -1.33333 0 1122.52)"/><path d="M287.964 280.265h.742v-3.977h-.774l-.578 1.416c-.197.471-.355.953-.53 1.58h-.011c.027-.33.059-.732.081-1.135.02-.398.037-.795.037-1.113v-.748h-.743v3.977h.768l.578-1.448a13 13 0 0 0 .529-1.58h.012c-.027.362-.053.748-.074 1.129-.022.381-.037.764-.037 1.119z" clip-path="url(#B)" style="fill:#231f20;fill-opacity:1;fill-rule:nonzero;stroke:none" transform="matrix(1.33333 0 0 -1.33333 0 1122.52)"/><path d="M291.021 280.487h-.663l-.598.592h.594l.338-.264.334.264h.605zm-1.458-4.199v3.977h2.088v-.584h-1.345v-1.002h1.24v-.582h-1.24v-1.225h1.345v-.584z" clip-path="url(#C)" style="fill:#231f20;fill-opacity:1;fill-rule:nonzero;stroke:none" transform="matrix(1.33333 0 0 -1.33333 0 1122.52)"/><path d="M295.563 280.265h.795l-.859-3.977h-.99l-.88 3.977h.795l.466-2.551c.043-.223.069-.449.09-.678.011-.105.033-.217.033-.328h.009c0 .111.022.223.033.328q.029.344.09.678z" clip-path="url(#D)" style="fill:#231f20;fill-opacity:1;fill-rule:nonzero;stroke:none" transform="matrix(1.33333 0 0 -1.33333 0 1122.52)"/><path d="M299.903 281.079h.823l-.786-.592h-.535zm.346-.814h.742v-2.774c0-.879-.287-1.297-1.257-1.297-.98 0-1.266.418-1.266 1.297v2.774h.742v-2.709c0-.381.026-.764.529-.764.483 0 .51.383.51.764z" clip-path="url(#E)" style="fill:#231f20;fill-opacity:1;fill-rule:nonzero;stroke:none" transform="matrix(1.33333 0 0 -1.33333 0 1122.52)"/><path d="M303.38 279.056c.006.355-.026.705-.434.705-.25 0-.408-.102-.408-.371 0-.303.191-.42.424-.569.244-.152.694-.449.9-.65.255-.25.334-.488.334-.832 0-.754-.498-1.145-1.223-1.145-.891 0-1.208.498-1.208 1.207v.291h.741v-.232c-.016-.387.1-.668.467-.668.312 0 .461.164.461.467 0 .232-.107.392-.297.525-.387.301-.869.52-1.171.916-.122.18-.192.399-.192.61 0 .677.382 1.048 1.166 1.048 1.182 0 1.151-.91 1.157-1.302z" clip-path="url(#F)" style="fill:#231f20;fill-opacity:1;fill-rule:nonzero;stroke:none" transform="matrix(1.33333 0 0 -1.33333 0 1122.52)"/><path d="M304.7 280.265h2.475v-.584h-.863v-3.393h-.743v3.393h-.869Z" clip-path="url(#G)" style="fill:#231f20;fill-opacity:1;fill-rule:nonzero;stroke:none" transform="matrix(1.33333 0 0 -1.33333 0 1122.52)"/><path d="M308.356 281.079h.823l-.785-.592h-.536zm-.572-.814h.742v-3.977h-.742z" clip-path="url(#H)" style="fill:#231f20;fill-opacity:1;fill-rule:nonzero;stroke:none" transform="matrix(1.33333 0 0 -1.33333 0 1122.52)"/><path d="M312.671 280.265h.742v-3.977h-.773l-.578 1.416c-.197.471-.356.953-.53 1.58h-.011c.027-.33.058-.732.08-1.135.021-.398.037-.795.037-1.113v-.748h-.742v3.977h.768l.577-1.448c.192-.461.35-.933.53-1.58h.011c-.026.362-.053.748-.074 1.129s-.037.764-.037 1.119z" clip-path="url(#I)" style="fill:#231f20;fill-opacity:1;fill-rule:nonzero;stroke:none" transform="matrix(1.33333 0 0 -1.33333 0 1122.52)"/><path d="M315.088 277.878h.636l-.202 1.129c-.037.185-.052.367-.074.553a4 4 0 0 1-.026.263h-.011q-.017-.128-.026-.263c-.021-.186-.037-.368-.074-.553zm-1.108-1.59.949 3.977h1.002l.9-3.977h-.795l-.195 1.008h-.869l-.197-1.008z" clip-path="url(#J)" style="fill:#231f20;fill-opacity:1;fill-rule:nonzero;stroke:none" transform="matrix(1.33333 0 0 -1.33333 0 1122.52)"/><path d="M318.485 276.872c.662 0 .705.35.705 1.5 0 .938-.095 1.309-.541 1.309h-.488v-2.809zm-1.066-.584v3.977h1.549c.179 0 .54-.08.767-.452.17-.275.218-.714.218-1.373 0-.785 0-1.691-.61-2.044-.164-.096-.365-.108-.551-.108z" clip-path="url(#K)" style="fill:#231f20;fill-opacity:1;fill-rule:nonzero;stroke:none" transform="matrix(1.33333 0 0 -1.33333 0 1122.52)"/><path d="M322.28 276.288v3.977h.742v-3.393h1.377v-.584z" clip-path="url(#L)" style="fill:#231f20;fill-opacity:1;fill-rule:nonzero;stroke:none" transform="matrix(1.33333 0 0 -1.33333 0 1122.52)"/><path d="M325.884 277.878h.636l-.203 1.129c-.037.185-.052.367-.074.553a4 4 0 0 1-.025.263h-.012a4 4 0 0 1-.025-.263c-.022-.186-.037-.368-.075-.553zm-1.108-1.59.949 3.977h1.001l.901-3.977h-.795l-.196 1.008h-.869l-.196-1.008z" clip-path="url(#M)" style="fill:#231f20;fill-opacity:1;fill-rule:nonzero;stroke:none" transform="matrix(1.33333 0 0 -1.33333 0 1122.52)"/><path d="M329.079 276.872c.154 0 .313-.016.445.043.202.09.229.35.229.551 0 .43-.086.609-.547.609h-.285v-1.203zm-.021 1.785c.18 0 .414-.01.531.139.068.1.078.238.078.43 0 .296-.063.445-.402.455h-.344v-1.024zm-.879-2.369v3.977h1.197c.318 0 .631-.022.843-.293.17-.217.196-.446.196-.715 0-.344-.074-.684-.477-.832v-.01c.418-.059.578-.408.578-.924 0-.164-.011-.328-.053-.486-.159-.504-.445-.717-.976-.717z" clip-path="url(#N)" style="fill:#231f20;fill-opacity:1;fill-rule:nonzero;stroke:none" transform="matrix(1.33333 0 0 -1.33333 0 1122.52)"/><path d="M331.278 276.288v3.977h2.088v-.584h-1.345v-1.002h1.24v-.582h-1.24v-1.225h1.345v-.584z" clip-path="url(#O)" style="fill:#231f20;fill-opacity:1;fill-rule:nonzero;stroke:none" transform="matrix(1.33333 0 0 -1.33333 0 1122.52)"/><path d="M334.845 276.288h-.741v3.977h1.182l.397-1.846c.064-.301.105-.609.138-.916h.01c.037.393.065.656.117.916l.397 1.846h1.177v-3.977h-.742v1.252c0 .789.016 1.578.063 2.369h-.01l-.795-3.621h-.451l-.779 3.621h-.026c.047-.791.063-1.58.063-2.369z" clip-path="url(#P)" style="fill:#231f20;fill-opacity:1;fill-rule:nonzero;stroke:none" transform="matrix(1.33333 0 0 -1.33333 0 1122.52)"/><path d="M311.314 438.091h.44v-2.857c-.005-.312.048-.815.753-.815s.758.503.752.815v2.857h.44v-3.016c0-.71-.471-1.054-1.192-1.054s-1.193.344-1.193 1.054z" clip-path="url(#Q)" style="fill:#231f20;fill-opacity:1;fill-rule:nonzero;stroke:none" transform="matrix(1.33333 0 0 -1.33333 0 1122.52)"/><path d="M316.566 438.091h.44v-3.975h-.721l-1.113 3.18a3.2 3.2 0 0 0-.149.6h-.009c.005-.202.009-.409.009-.61v-3.17h-.439v3.975h.716l1.129-3.254a5 5 0 0 0 .137-.435h.011c-.006.144-.011.297-.011.446z" clip-path="url(#R)" style="fill:#231f20;fill-opacity:1;fill-rule:nonzero;stroke:none" transform="matrix(1.33333 0 0 -1.33333 0 1122.52)"/><path d="M317.986 438.091h.439v-3.975h-.439z" clip-path="url(#S)" style="fill:#231f20;fill-opacity:1;fill-rule:nonzero;stroke:none" transform="matrix(1.33333 0 0 -1.33333 0 1122.52)"/><path d="M321.396 438.091h.487l-1.145-3.975h-.546l-1.139 3.975h.487l.917-3.656h.011z" clip-path="url(#T)" style="fill:#231f20;fill-opacity:1;fill-rule:nonzero;stroke:none" transform="matrix(1.33333 0 0 -1.33333 0 1122.52)"/><path d="M322.386 434.116v3.975h1.987v-.397h-1.548v-1.314h1.452v-.399h-1.452v-1.467h1.559v-.398z" clip-path="url(#U)" style="fill:#231f20;fill-opacity:1;fill-rule:nonzero;stroke:none" transform="matrix(1.33333 0 0 -1.33333 0 1122.52)"/><path d="M325.592 436.263h.694c.207.006.779.037.769.731-.011.684-.546.7-.843.7h-.62zm0-2.147h-.44v3.975h1.023c.832 0 1.362-.217 1.336-1.134-.016-.466-.302-.8-.764-.864v-.01c.515-.049.642-.213.705-.742.016-.297.043-.588.085-.885.016-.074.048-.25.153-.25v-.09h-.513c-.096.254-.138.748-.138 1.012 0 .398-.159.737-.679.737h-.768z" clip-path="url(#V)" style="fill:#231f20;fill-opacity:1;fill-rule:nonzero;stroke:none" transform="matrix(1.33333 0 0 -1.33333 0 1122.52)"/><path d="M328.136 434.116v.382l1.876 3.196h-1.828v.397h2.284v-.381l-1.876-3.196h1.902v-.398z" clip-path="url(#W)" style="fill:#231f20;fill-opacity:1;fill-rule:nonzero;stroke:none" transform="matrix(1.33333 0 0 -1.33333 0 1122.52)"/><path d="M331.21 438.091h.439v-3.975h-.439z" clip-path="url(#X)" style="fill:#231f20;fill-opacity:1;fill-rule:nonzero;stroke:none" transform="matrix(1.33333 0 0 -1.33333 0 1122.52)"/><path d="M332.296 438.091h2.497v-.397h-1.028v-3.578h-.441v3.578h-1.028z" clip-path="url(#Y)" style="fill:#231f20;fill-opacity:1;fill-rule:nonzero;stroke:none" transform="matrix(1.33333 0 0 -1.33333 0 1122.52)"/><path d="M336.107 437.773h-.01l-.525-2.114h1.05zm-.286.318h.583l1.118-3.975h-.487l-.312 1.145h-1.256l-.292-1.145h-.487z" clip-path="url(#Z)" style="fill:#231f20;fill-opacity:1;fill-rule:nonzero;stroke:none" transform="matrix(1.33333 0 0 -1.33333 0 1122.52)"/><path d="M307.577 428.421v-.234c0-.355.016-.694.461-.694s.493.339.493.694v2.962h.44v-2.994c0-.838-.382-1.06-.938-1.06-.307 0-.604.091-.758.377-.17.318-.143.757-.138.949z" clip-path="url(#aa)" style="fill:#231f20;fill-opacity:1;fill-rule:nonzero;stroke:none" transform="matrix(1.33333 0 0 -1.33333 0 1122.52)"/><path d="M309.851 427.704h.482v-.529h-.482z" clip-path="url(#ab)" style="fill:#231f20;fill-opacity:1;fill-rule:nonzero;stroke:none" transform="matrix(1.33333 0 0 -1.33333 0 1122.52)"/><path d="M311.621 427.175v3.974h1.987v-.396h-1.547v-1.315h1.452v-.398h-1.452v-1.468h1.558v-.397z" clip-path="url(#ac)" style="fill:#231f20;fill-opacity:1;fill-rule:nonzero;stroke:none" transform="matrix(1.33333 0 0 -1.33333 0 1122.52)"/><path d="M314.779 427.704h.482v-.529h-.482z" clip-path="url(#ad)" style="fill:#231f20;fill-opacity:1;fill-rule:nonzero;stroke:none" transform="matrix(1.33333 0 0 -1.33333 0 1122.52)"/><path d="M316.947 429.258h.43c.604.005.975.09.97.774 0 .641-.409.731-.944.721h-.456zm-.439-2.083v3.974h1.044c.307 0 .694-.037.927-.259.239-.223.324-.53.324-.848 0-.439-.133-.869-.563-1.064-.275-.118-.725-.118-1.027-.118h-.266v-1.685z" clip-path="url(#ae)" style="fill:#231f20;fill-opacity:1;fill-rule:nonzero;stroke:none" transform="matrix(1.33333 0 0 -1.33333 0 1122.52)"/><path d="M319.481 431.149h.44v-2.856c-.005-.313.048-.815.753-.815s.758.502.752.815v2.856h.44v-3.015c0-.71-.471-1.055-1.192-1.055s-1.193.345-1.193 1.055z" clip-path="url(#af)" style="fill:#231f20;fill-opacity:1;fill-rule:nonzero;stroke:none" transform="matrix(1.33333 0 0 -1.33333 0 1122.52)"/><path d="M323.238 429.321h.695c.207.006.779.037.768.732-.011.683-.546.7-.843.7h-.62zm0-2.146h-.439v3.974h1.022c.832 0 1.363-.216 1.336-1.133-.015-.466-.302-.8-.763-.865v-.009c.514-.049.641-.213.705-.743.015-.296.043-.587.085-.884.015-.075.047-.25.153-.25v-.09h-.514c-.095.254-.137.748-.137 1.012 0 .398-.16.737-.679.737h-.769z" clip-path="url(#ag)" style="fill:#231f20;fill-opacity:1;fill-rule:nonzero;stroke:none" transform="matrix(1.33333 0 0 -1.33333 0 1122.52)"/><path d="M326.053 427.175v3.974h.439v-2.04l1.447 2.04h.551l-1.266-1.664 1.303-2.31h-.54l-1.076 1.918-.413-.54v-1.378z" clip-path="url(#ah)" style="fill:#231f20;fill-opacity:1;fill-rule:nonzero;stroke:none" transform="matrix(1.33333 0 0 -1.33333 0 1122.52)"/><path d="m330.107 429.157.933 1.992h.487l-1.203-2.431v-1.543h-.439v1.543l-1.193 2.431h.488z" clip-path="url(#ai)" style="fill:#231f20;fill-opacity:1;fill-rule:nonzero;stroke:none" transform="matrix(1.33333 0 0 -1.33333 0 1122.52)"/><path d="M334.024 431.149h.44v-3.974h-.721l-1.113 3.179a3.3 3.3 0 0 0-.149.6h-.01c.006-.201.01-.408.01-.609v-3.17h-.439v3.974h.716l1.129-3.253a5 5 0 0 0 .137-.435h.011a11 11 0 0 0-.011.445z" clip-path="url(#aj)" style="fill:#231f20;fill-opacity:1;fill-rule:nonzero;stroke:none" transform="matrix(1.33333 0 0 -1.33333 0 1122.52)"/><path d="m336.361 431.59.35.376h.424l-.531-.594h-.492l-.525.594h.425zm-1.044-4.415v3.974h1.988v-.396h-1.548v-1.315h1.452v-.398h-1.452v-1.468h1.558v-.397z" clip-path="url(#ak)" style="fill:#231f20;fill-opacity:1;fill-rule:nonzero;stroke:none" transform="matrix(1.33333 0 0 -1.33333 0 1122.52)"/><path d="M297.953 424.208h.487l-1.144-3.975h-.546l-1.14 3.975h.488l.917-3.656h.01z" clip-path="url(#al)" style="fill:#231f20;fill-opacity:1;fill-rule:nonzero;stroke:none" transform="matrix(1.33333 0 0 -1.33333 0 1122.52)"/><path d="M301.318 425.024h.589l-.678-.593h-.367zm-1.382-.816h.439v-2.856c-.005-.313.048-.816.753-.816s.758.503.752.816v2.856h.44v-3.016c0-.71-.471-1.054-1.192-1.054s-1.192.344-1.192 1.054z" clip-path="url(#am)" style="fill:#231f20;fill-opacity:1;fill-rule:nonzero;stroke:none" transform="matrix(1.33333 0 0 -1.33333 0 1122.52)"/><path d="M304.917 423.165c.031.412-.19.726-.631.726-.641 0-.71-.404-.71-.71 0-.276.122-.446.376-.541.212-.08.419-.16.631-.239.753-.281.891-.547.891-1.07 0-.753-.472-1.193-1.236-1.193-.391 0-.858.111-1.086.631-.085.196-.08.513-.085.726h.44c-.021-.588.091-.959.753-.959.445 0 .758.227.758.693 0 .605-.245.61-.647.764-.218.084-.567.195-.779.307-.376.191-.472.51-.472.902 0 .656.461 1.086 1.108 1.086.726 0 1.171-.377 1.128-1.123z" clip-path="url(#an)" style="fill:#231f20;fill-opacity:1;fill-rule:nonzero;stroke:none" transform="matrix(1.33333 0 0 -1.33333 0 1122.52)"/><path d="M305.876 424.208h2.497v-.396h-1.028v-3.579h-.441v3.579h-1.028z" clip-path="url(#ao)" style="fill:#231f20;fill-opacity:1;fill-rule:nonzero;stroke:none" transform="matrix(1.33333 0 0 -1.33333 0 1122.52)"/><path d="M309.485 425.024h.589l-.678-.593h-.366zm-.465-.816h.439v-3.975h-.439z" clip-path="url(#ap)" style="fill:#231f20;fill-opacity:1;fill-rule:nonzero;stroke:none" transform="matrix(1.33333 0 0 -1.33333 0 1122.52)"/><path d="M313.688 424.208h.44v-3.975h-.721l-1.113 3.18a3 3 0 0 0-.148.6h-.011c.006-.201.011-.409.011-.61v-3.17h-.44v3.975h.716l1.129-3.254c.047-.121.084-.249.137-.434h.011c-.006.143-.011.296-.011.445z" clip-path="url(#aq)" style="fill:#231f20;fill-opacity:1;fill-rule:nonzero;stroke:none" transform="matrix(1.33333 0 0 -1.33333 0 1122.52)"/><path d="M316.067 423.891h-.01l-.525-2.115h1.05zm-.286.317h.583l1.118-3.975h-.487l-.312 1.145h-1.257l-.291-1.145h-.488z" clip-path="url(#ar)" style="fill:#231f20;fill-opacity:1;fill-rule:nonzero;stroke:none" transform="matrix(1.33333 0 0 -1.33333 0 1122.52)"/><path d="M318.463 420.631h.705c.646 0 .912.482.869 1.669-.031.906-.158 1.512-.869 1.512h-.705zm-.44-.398v3.975h1.092c1.24 0 1.41-1.006 1.378-1.987-.031-.97-.222-1.988-1.299-1.988z" clip-path="url(#as)" style="fill:#231f20;fill-opacity:1;fill-rule:nonzero;stroke:none" transform="matrix(1.33333 0 0 -1.33333 0 1122.52)"/><path d="M322.485 420.233v3.975h.441v-3.577h1.622v-.398z" clip-path="url(#at)" style="fill:#231f20;fill-opacity:1;fill-rule:nonzero;stroke:none" transform="matrix(1.33333 0 0 -1.33333 0 1122.52)"/><path d="M326.228 423.891h-.011l-.525-2.115h1.05zm-.287.317h.583l1.119-3.975h-.488l-.312 1.145h-1.257l-.291-1.145h-.487z" clip-path="url(#au)" style="fill:#231f20;fill-opacity:1;fill-rule:nonzero;stroke:none" transform="matrix(1.33333 0 0 -1.33333 0 1122.52)"/><path d="M329.308 420.631c.476-.005.651.227.651.747.006.785-.503.732-.954.732h-.392v-1.479zm-.695 1.876h.392c.535-.027.849.069.843.679 0 .493-.18.635-.848.626h-.387zm-.44-2.274v3.975h1.135c.72.021.991-.392 1.011-.985.016-.441-.127-.716-.593-.874v-.012c.525-.063.683-.445.689-.932.005-.79-.43-1.203-1.192-1.172z" clip-path="url(#av)" style="fill:#231f20;fill-opacity:1;fill-rule:nonzero;stroke:none" transform="matrix(1.33333 0 0 -1.33333 0 1122.52)"/><path d="M331.142 420.233v3.975h1.987v-.396h-1.548v-1.315h1.452v-.398h-1.452v-1.468h1.559v-.398z" clip-path="url(#aw)" style="fill:#231f20;fill-opacity:1;fill-rule:nonzero;stroke:none" transform="matrix(1.33333 0 0 -1.33333 0 1122.52)"/><path d="M336.399 424.208h.774v-3.975h-.441v3.276c0 .17.011.334 0 .504h-.009c-.048-.234-.085-.382-.122-.535l-.832-3.245h-.526l-.832 3.291c-.037.139-.068.271-.116.489h-.011c0-.17.011-.345.011-.515v-3.265h-.441v3.975h.78l.779-3.1c.042-.17.064-.334.085-.588h.011c.026.202.053.397.1.593z" clip-path="url(#ax)" style="fill:#231f20;fill-opacity:1;fill-rule:nonzero;stroke:none" transform="matrix(1.33333 0 0 -1.33333 0 1122.52)"/><path d="M300.713 410.572v-1.939l-10.094 7.908h2.479z" clip-path="url(#ay)" style="fill:#46ae33;fill-opacity:1;fill-rule:nonzero;stroke:none" transform="matrix(1.33333 0 0 -1.33333 0 1122.52)"/><path d="M306.787 410.572v-1.939l-10.092 7.908h2.477z" clip-path="url(#az)" style="fill:#fbbf16;fill-opacity:1;fill-rule:nonzero;stroke:none" transform="matrix(1.33333 0 0 -1.33333 0 1122.52)"/><path d="M294.641 410.572v-1.939l-10.094 7.908h2.476z" clip-path="url(#aA)" style="fill:#7b7678;fill-opacity:1;fill-rule:nonzero;stroke:none" transform="matrix(1.33333 0 0 -1.33333 0 1122.52)"/><path d="M312.861 410.572v-1.939l-10.091 7.908h2.474z" clip-path="url(#aB)" style="fill:#f4731c;fill-opacity:1;fill-rule:nonzero;stroke:none" transform="matrix(1.33333 0 0 -1.33333 0 1122.52)"/><path d="M318.936 410.572v-1.939l-10.092 7.908h2.476z" clip-path="url(#aC)" style="fill:#e51636;fill-opacity:1;fill-rule:nonzero;stroke:none" transform="matrix(1.33333 0 0 -1.33333 0 1122.52)"/><path d="M325.012 410.572v-1.939l-10.094 7.908h2.477z" clip-path="url(#aD)" style="fill:#007582;fill-opacity:1;fill-rule:nonzero;stroke:none" transform="matrix(1.33333 0 0 -1.33333 0 1122.52)"/><path d="M331.086 410.572v-1.939l-10.094 7.908h2.477z" clip-path="url(#aE)" style="fill:#f1499c;fill-opacity:1;fill-rule:nonzero;stroke:none" transform="matrix(1.33333 0 0 -1.33333 0 1122.52)"/><path d="m337.16 408.633-10.094 7.908h2.475l7.619-5.969z" clip-path="url(#aF)" style="fill:#2f97da;fill-opacity:1;fill-rule:nonzero;stroke:none" transform="matrix(1.33333 0 0 -1.33333 0 1122.52)"/><path d="M300.417 567.583v-1.939l-10.094 7.908h2.479z" clip-path="url(#aG)" style="fill:#46ae33;fill-opacity:1;fill-rule:nonzero;stroke:none" transform="matrix(1.33333 0 0 -1.33333 0 1122.52)"/><path d="M306.491 567.583v-1.939l-10.092 7.908h2.477z" clip-path="url(#aH)" style="fill:#fbbf16;fill-opacity:1;fill-rule:nonzero;stroke:none" transform="matrix(1.33333 0 0 -1.33333 0 1122.52)"/><path d="M294.345 567.583v-1.939l-10.094 7.908h2.477z" clip-path="url(#aI)" style="fill:#7b7678;fill-opacity:1;fill-rule:nonzero;stroke:none" transform="matrix(1.33333 0 0 -1.33333 0 1122.52)"/><path d="M312.565 567.583v-1.939l-10.091 7.908h2.474z" clip-path="url(#aJ)" style="fill:#f4731c;fill-opacity:1;fill-rule:nonzero;stroke:none" transform="matrix(1.33333 0 0 -1.33333 0 1122.52)"/><path d="M318.64 567.583v-1.939l-10.092 7.908h2.476z" clip-path="url(#aK)" style="fill:#e51636;fill-opacity:1;fill-rule:nonzero;stroke:none" transform="matrix(1.33333 0 0 -1.33333 0 1122.52)"/><path d="M324.716 567.583v-1.939l-10.094 7.908h2.477z" clip-path="url(#aL)" style="fill:#007582;fill-opacity:1;fill-rule:nonzero;stroke:none" transform="matrix(1.33333 0 0 -1.33333 0 1122.52)"/><path d="M330.79 567.583v-1.939l-10.094 7.908h2.477z" clip-path="url(#aM)" style="fill:#f1499c;fill-opacity:1;fill-rule:nonzero;stroke:none" transform="matrix(1.33333 0 0 -1.33333 0 1122.52)"/><path d="m336.864 565.644-10.093 7.908h2.474l7.619-5.969z" clip-path="url(#aN)" style="fill:#2f97da;fill-opacity:1;fill-rule:nonzero;stroke:none" transform="matrix(1.33333 0 0 -1.33333 0 1122.52)"/><path d="M307.331 589.478h2.24v-8.368c0-2.656-.864-3.92-3.792-3.92-2.96 0-3.824 1.264-3.824 3.92v8.368h2.24v-8.177c0-1.151.079-2.302 1.6-2.302 1.456 0 1.536 1.151 1.536 2.302z" clip-path="url(#aO)" style="fill:#231f20;fill-opacity:1;fill-rule:nonzero;stroke:none" transform="matrix(1.33333 0 0 -1.33333 0 1122.52)"/><path d="M314.115 581.286v-1.489c.016-.431.176-.798.72-.798.801 0 .816.607.816 1.263v9.216h2.241v-8.752c0-.815.063-1.983-.657-2.752-.656-.704-1.648-.784-2.736-.784-.8 0-1.695.305-2.305 1.232-.271.432-.382 1.76-.319 2.864z" clip-path="url(#aP)" style="fill:#231f20;fill-opacity:1;fill-rule:nonzero;stroke:none" transform="matrix(1.33333 0 0 -1.33333 0 1122.52)"/><path d="M320.979 577.478v12h6.303v-1.761h-4.063v-3.023h3.743v-1.76h-3.743v-3.696h4.063v-1.76z" clip-path="url(#aQ)" style="fill:#231f20;fill-opacity:1;fill-rule:nonzero;stroke:none" transform="matrix(1.33333 0 0 -1.33333 0 1122.52)"/><path d="M332.387 584.262h1.2c.976 0 1.631.416 1.631 1.871 0 1.377-.543 1.584-1.807 1.584h-1.024zm-2.241-6.784v12h4.577c2.143 0 2.799-1.728 2.799-3.408 0-1.025-.271-2.176-1.12-2.848-.704-.559-1.647-.736-2.511-.72h-1.504v-5.024z" clip-path="url(#aR)" style="fill:#231f20;fill-opacity:1;fill-rule:nonzero;stroke:none" transform="matrix(1.33333 0 0 -1.33333 0 1122.52)"/></svg>