<?xml version="1.0" encoding="UTF-8"?>
<!DOCTYPE svg PUBLIC "-//W3C//DTD SVG 1.1//EN" "http://www.w3.org/Graphics/SVG/1.1/DTD/svg11.dtd">
<!-- Creator: CorelDRAW X8 -->
<svg xmlns="http://www.w3.org/2000/svg" xml:space="preserve" width="64px" height="64px" version="1.1" style="shape-rendering:geometricPrecision; text-rendering:geometricPrecision; image-rendering:optimizeQuality; fill-rule:evenodd; clip-rule:evenodd"
viewBox="0 0 198703 198708"
 xmlns:xlink="http://www.w3.org/1999/xlink">
 <defs>
  <style type="text/css">
   <![CDATA[
    .fil0 {fill:#EE7427;fill-rule:nonzero}
   ]]>
  </style>
 </defs>
 <g id="Vrstva_x0020_1">
  <metadata id="CorelCorpID_0Corel-Layer"/>
  <polygon class="fil0" points="70024,54366 70024,72493 123315,54549 123315,54366 "/>
  <path class="fil0" d="M70024 144387c0,4666 4300,7226 9402,7226 1701,0 3786,-385 5190,-898 1398,-473 51325,-17911 51325,-17911l0 -71354c0,0 -49669,17360 -51243,17886 -1486,530 -3276,853 -5134,853 -5038,0 -9345,-2365 -9345,-4983l-195 0 0 69181z"/>
  <path class="fil0" d="M99364 18107c-44802,0 -81251,36456 -81251,81257 0,44775 36449,81231 81251,81231 44807,0 81244,-36456 81244,-81231 0,-44801 -36437,-81257 -81244,-81257zm0 180601c-54791,0 -99365,-44584 -99365,-99344 0,-54790 44574,-99364 99365,-99364 54776,0 99338,44574 99338,99364 0,54760 -44562,99344 -99338,99344z"/>
 </g>
</svg>
