<svg xmlns="http://www.w3.org/2000/svg" viewBox="0 0 260.91 173.943"><defs><clipPath id="a"><path d="M0 0h260.91v173.943H0Z"/></clipPath></defs><g fill="#009ee0"><path d="M142.648 31.71h79.585v25.326H182.34v16.06h37.81v25.251h-37.81v17.99h40.74v26.111h-80.432Z"/><g clip-path="url(#a)"><path d="M88.662 60.342c0-9.477 5.907-17.112 14.542-19.911l-12.02 29.796c-1.594-2.648-2.522-5.858-2.522-9.885M97.1 76.296l14.894-37.004c6.516.249 11.961 2.344 21.94 8.403V38.29c-8.088-4.7-16.013-6.971-24.089-6.971-16.458 0-29.868 12.97-29.868 29.347 0 8.873 2.935 14.768 7.371 19.068l-18.349 45.483-38.055-93.551h-8.335l45.133 111.709H70.1l23.694-58.867c14.656 8.52 35.718 9.799 35.718 30.31 0 12.485-9.61 22.049-21.953 22.049-8.077 0-14.63-2.918-26.212-11.834v10.053c9.143 6.484 18.135 9.726 26.67 9.726 16.915 0 30.184-13.295 30.184-30.318 0-28.59-26.96-28.411-41.1-38.2M129.034 24.786h-38.42v-7.827h38.42Z"/></g></g></svg>