<svg xmlns="http://www.w3.org/2000/svg" viewBox="0 0 243.811 274.961"><defs><clipPath id="a"><path d="M17.008 299.723H159.07v71.615H17.008z"/></clipPath></defs><path d="M0 0v-16.535l14.316 8.271z" style="fill:#1a4c84;fill-opacity:1;fill-rule:nonzero;stroke:none" transform="matrix(3.7413 0 0 -3.7413 181.601 106.999)"/><g clip-path="url(#a)" transform="matrix(3.7413 0 0 -3.7413 -60.089 1392.8)"><path d="m0 0 20.817 12.019c-5.815 1.946-10 6.272-10.074 13.749l.001 24.74h10.708V26.3c.16-4.926 2.734-8.033 7.767-8.033 1.427 0 2.644.26 3.678.724l1.124.655c1.878 1.358 2.867 3.669 2.966 6.654v23.945h.025L0 71.615z" style="fill:#1a4c84;fill-opacity:1;fill-rule:evenodd;stroke:none" transform="translate(17.008 299.723)"/><path d="M0 0h4.315v-1.3L1.301-6.067h3.084v-1.101H-.141v1.309L2.87-1.104H0z" style="fill:#1a4c84;fill-opacity:1;fill-rule:evenodd;stroke:none" transform="translate(88.772 349.757)"/><path d="m0 0 1.984 7.168h1.977L5.904 0H4.326l-.398 1.591H1.885L1.479 0zm4.377 8.605-1.391-1.08h-1.02l.892 1.08zM2.888 5.787h-.02l-.683-3.096h1.431z" style="fill:#1a4c84;fill-opacity:1;fill-rule:evenodd;stroke:none" transform="translate(94.348 342.59)"/><path d="M0 0h2.699c1.369 0 1.907-.833 1.907-2.146 0-.812-.242-2.104-1.996-2.104H1.499v-2.918L0-7.169zm1.499-3.145h.832c.445 0 .753.486.753.961 0 .584-.159 1.081-.832 1.081h-.753z" style="fill:#1a4c84;fill-opacity:1;fill-rule:evenodd;stroke:none" transform="translate(101.86 349.757)"/><path d="m0 0 1.983 7.168h1.973L5.904 0h-1.58l-.397 1.591H1.886L1.477 0zm2.884 5.787h-.018l-.685-3.096h1.431z" style="fill:#1a4c84;fill-opacity:1;fill-rule:evenodd;stroke:none" transform="translate(107.22 342.59)"/><path d="M0 0h2.504c1.967 0 2.333-1.31 2.333-3.543 0-1.102.169-3.625-2.395-3.625H0zm1.501-6.067h.727c.91 0 1.089.686 1.089 2.482 0 1.32 0 2.481-1.043 2.481h-.773z" style="fill:#1a4c84;fill-opacity:1;fill-rule:evenodd;stroke:none" transform="translate(114.746 349.757)"/><path d="M0 0c0 1.897 0 3.704 2.469 3.704 2.474 0 2.474-1.807 2.474-3.704 0-1.877 0-3.702-2.474-3.702C0-3.702 0-1.877 0 0m3.421 0c0 1.838-.109 2.632-.952 2.632-.845 0-.954-.795-.954-2.632 0-1.835.109-2.631.954-2.631.843 0 .952.796.952 2.631" style="fill:#1a4c84;fill-opacity:1;fill-rule:evenodd;stroke:none" transform="translate(121.608 346.173)"/><path d="M0 0c0 1.897 0 3.704 2.467 3.704 1.532 0 2.147-.844 2.085-2.386H3.084c0 .956-.168 1.314-.617 1.314-.842 0-.951-.795-.951-2.632 0-1.835.108-2.631.951-2.631.697 0 .666.896.687 1.462h1.479c0-1.919-.767-2.533-2.166-2.533C0-3.702 0-1.877 0 0m3.143 5.023h1.123l-1.004-1.08H1.625l-1 1.08h1.121l.706-.585z" style="fill:#1a4c84;fill-opacity:1;fill-rule:evenodd;stroke:none" transform="translate(128.563 346.173)"/><path d="M0 0v7.168h3.911V6.063H1.497V4.297h2.227v-1.1H1.497V1.101h2.491V0z" style="fill:#1a4c84;fill-opacity:1;fill-rule:evenodd;stroke:none" transform="translate(135.04 342.59)"/><path d="M0 0c-1.853 0-2.203 1.092-2.12 2.332h1.495c0-.684.031-1.26.854-1.26.504 0 .753.329.753.813 0 1.291-3.016 1.372-3.016 3.504 0 1.122.54 2.017 2.361 2.017 1.462 0 2.187-.656 2.086-2.155H.95c0 .536-.085 1.083-.689 1.083-.491 0-.775-.269-.775-.765 0-1.359 3.015-1.24 3.015-3.493C2.502.219 1.143 0 0 0" style="fill:#1a4c84;fill-opacity:1;fill-rule:evenodd;stroke:none" transform="translate(142.838 342.47)"/><path d="M0 0h1.651L-.355-3.216l2.006-3.952H-.04l-1.717 3.675h-.02v-3.675h-1.495V0h1.495v-3.069h.02z" style="fill:#1a4c84;fill-opacity:1;fill-rule:evenodd;stroke:none" transform="translate(150.488 349.757)"/><path d="m0 0 1.98 7.168h1.978L5.901 0H4.324l-.397 1.591H1.88L1.477 0zm4.372 8.605-1.39-1.08h-1.02l.895 1.08zM2.885 5.787h-.018l-.686-3.096H3.61z" style="fill:#1a4c84;fill-opacity:1;fill-rule:evenodd;stroke:none" transform="translate(153.17 342.59)"/><path d="M0 0v-5.08c0-1.072-.607-2.203-2.428-2.203-1.65 0-2.441.856-2.441 2.203V0h1.496v-4.981c0-.883.378-1.228.925-1.228.65 0 .948.437.948 1.228V0z" style="fill:#1a4c84;fill-opacity:1;fill-rule:evenodd;stroke:none" transform="translate(93.646 335.43)"/><path d="M0 0v7.165h2.024l1.902-4.963h.018v4.963h1.399V0H3.372L1.421 5.239h-.023V0z" style="fill:#1a4c84;fill-opacity:1;fill-rule:evenodd;stroke:none" transform="translate(95.767 328.265)"/><path d="M103.268 328.266h1.496v7.165h-1.496z" style="fill:#1a4c84;fill-opacity:1;fill-rule:evenodd;stroke:none"/><path d="M0 0h1.559l1.106-5.208h.021L3.937 0h1.477L3.521-7.165H1.764z" style="fill:#1a4c84;fill-opacity:1;fill-rule:evenodd;stroke:none" transform="translate(106.341 335.43)"/><path d="M0 0v7.165h3.916V6.061H1.5V4.298h2.226V3.196H1.5V1.103h2.49V0z" style="fill:#1a4c84;fill-opacity:1;fill-rule:evenodd;stroke:none" transform="translate(113.318 328.265)"/><path d="M0 0h-1.497v7.165H1.27c1.022 0 1.672-.657 1.672-1.875 0-.912-.354-1.597-1.328-1.756v-.022c.332-.041 1.301-.118 1.301-1.406 0-.456.027-1.808.169-2.105L1.614 0c-.193.439-.156.925-.156 1.392 0 .851.081 1.578-1.07 1.578H.002V0zm0 4.07h.663c.599 0 .767.594.767 1.051 0 .684-.288.94-.767.94H0z" style="fill:#1a4c84;fill-opacity:1;fill-rule:evenodd;stroke:none" transform="translate(120.641 328.265)"/><path d="M0 0h4.314v-1.298L1.301-6.061h3.083v-1.104h-4.52v1.307l3.004 4.755H0z" style="fill:#1a4c84;fill-opacity:1;fill-rule:evenodd;stroke:none" transform="translate(125.311 335.43)"/><path d="M131.433 328.266h1.499v7.165h-1.499z" style="fill:#1a4c84;fill-opacity:1;fill-rule:evenodd;stroke:none"/><path d="M0 0v-1.193h-1.665v-5.972h-1.497v5.972h-1.666V0z" style="fill:#1a4c84;fill-opacity:1;fill-rule:evenodd;stroke:none" transform="translate(139.343 335.43)"/><path d="m0 0 1.985 7.165h1.971L5.899 0H4.325l-.398 1.589H1.885L1.478 0zm2.891 5.785H2.87L2.18 2.69h1.427z" style="fill:#1a4c84;fill-opacity:1;fill-rule:evenodd;stroke:none" transform="translate(139.793 328.265)"/><path d="M0 0h1.556l1.11-5.201h.018L3.93 0h1.476L3.515-7.15H1.762z" style="fill:#1a4c84;fill-opacity:1;fill-rule:evenodd;stroke:none" transform="translate(88.49 321.102)"/><path d="M0 0h2.688C4.056 0 4.59-.832 4.59-2.139c0-.813-.237-2.099-1.993-2.099H1.489v-2.913h-1.49V0zm1.489-3.14h.833c.447 0 .754.488.754.962 0 .588-.155 1.081-.834 1.081l-.753-.001z" style="fill:#1a4c84;fill-opacity:1;fill-rule:evenodd;stroke:none" transform="translate(98.565 321.102)"/><path d="M0 0v7.15h1.497V1.193h2.237V0z" style="fill:#1a4c84;fill-opacity:1;fill-rule:evenodd;stroke:none" transform="translate(104.215 313.951)"/><path d="M0 0h4.308v-1.298L1.3-6.051h3.08V-7.15H-.137v1.306l3.001 4.746H0z" style="fill:#1a4c84;fill-opacity:1;fill-rule:evenodd;stroke:none" transform="translate(109.224 321.102)"/><path d="M0 0v7.15h2.024l1.901-4.951h.021V7.15h1.392V0h-1.97L1.416 5.229H1.4V0z" style="fill:#1a4c84;fill-opacity:1;fill-rule:evenodd;stroke:none" transform="translate(115.342 313.951)"/><path d="M122.83 313.95h1.496v7.151h-1.496z" style="fill:#1a4c84;fill-opacity:1;fill-rule:evenodd;stroke:none"/></g></svg>